<?xml version="1.0" encoding="UTF-8" standalone="no"?>
<svg
   xmlns:dc="http://purl.org/dc/elements/1.1/"
   xmlns:cc="http://creativecommons.org/ns#"
   xmlns:rdf="http://www.w3.org/1999/02/22-rdf-syntax-ns#"
   xmlns:svg="http://www.w3.org/2000/svg"
   xmlns="http://www.w3.org/2000/svg"
   viewBox="2 2 98 98"
   id="svg2"
   version="1.1">
  <metadata
     id="metadata8">
    <rdf:RDF>
      <cc:Work
         rdf:about="">
        <dc:format>image/svg+xml</dc:format>
        <dc:type
           rdf:resource="http://purl.org/dc/dcmitype/StillImage" />
        <dc:title></dc:title>
      </cc:Work>
    </rdf:RDF>
  </metadata>
  <defs
     id="defs6" />
  <path
     id="path16"
     d="M 0.657895,98.399996 V 95.9 l 0.504386,1.25 0.504386,1.249996 -0.504386,1.25 L 0.657895,100.9 Z M 2.5,97.00765 v -3.725684 l 0.8952151,0.553273 0.895215,0.553274 0.616089,-1.605502 0.616089,-1.605501 -2.632103,0.660616 -2.6321041,0.660615 1.6208,-1.620799 L 3.5000001,89.257143 2,87.757143 0.5,86.257143 0.51531,85.078571 0.53062,83.9 l 0.969374,1.5 0.969375,1.5 0.01531,-1.916667 0.01531,-1.916666 0.6314831,0.631483 0.631483,0.631482 1.975876,-1.057456 1.975877,-1.057457 1.068847,1.068847 1.068847,1.068847 1.1571269,-0.96033 1.157127,-0.96033 v 1.428568 1.428568 L 11.583322,85.094444 10.999989,84.9 v 1 1 l 0.82433,-0.274777 0.82433,-0.274776 -0.643429,1.041088 -0.643428,1.041089 -0.930901,-0.575329 -0.9309019,-0.575329 V 88.4 89.518034 l -1,-0.618034 -1,-0.618034 v 1.475684 1.475683 l 0.75,0.419439 0.75,0.419438 -1.234746,-0.298867 -1.234745,-0.298866 -1.203866,2.212761 -1.203866,2.212762 -0.144233,1.749516 -0.144234,1.74951 -0.667155,0.667154 -0.6671551,0.66715 z m 5.3002701,-9.53882 1.731485,-2.931171 -1.015878,-0.627846 -1.015877,-0.627847 V 84.4 85.518034 l -0.886693,-0.548007 -0.886693,-0.548006 -0.977,1.238989 -0.977,1.23899 0.03036,1.75 0.03036,1.75 h 1.117726 1.117726 z M 4.5000001,86.9 v -0.5 h 0.5 0.5 v 0.5 0.5 h -0.5 -0.5 z m 0.333333,12.833336 0.666667,-0.66667 0.666667,0.66667 0.666666,0.666664 h -1.333333 -1.333333 z m 2.666667,-0.39481 v -0.6329 l 2.25,-1.183742 L 12,96.33814 10.25,96.837685 8.5000001,97.33723 v -0.874995 -0.874996 l -2.196339,0.574356 -2.196339,0.574355 1.446339,-1.584369 1.446339,-1.58437 0.903196,0.869591 0.903196,0.86959 1.9113699,-1.022935 1.911371,-1.022935 -1.260789,-1.519158 -1.26079,-1.519159 1.946223,0.338898 L 14,90.9 l -0.303414,-3.532738 -0.303413,-3.532738 1.427717,-2.751928 1.427717,-2.751927 0.532693,2.037023 0.532694,2.037022 -1.516456,0.848651 -1.516455,0.848651 1.533592,0.588495 1.533593,0.588494 2.746241,-2.689502 2.746242,-2.689503 -0.575307,1.584044 -0.575308,1.584045 2.408748,1.808894 2.408749,1.808894 -0.995141,1.199071 -0.99514,1.199071 0.710843,0.710843 0.710844,0.710843 -1.71952,-0.659841 L 22.5,89.186022 v 2.666006 2.666006 L 21.604785,93.964761 20.70957,93.411487 19.947066,95.155744 19.184561,96.9 l 0.201556,1.249996 0.201557,1.25 -0.793837,-0.0153 L 18,99.369396 16.5,98.421186 15,97.472969 V 96.269828 95.066687 L 13.75,94.65002 12.5,94.233353 v 1.254593 1.254593 l 1.654988,1.828737 1.654987,1.828744 H 14.854988 13.9 l -1.2,-1.200004 -1.2,-1.2 v 0.98572 0.985711 h -1.9999999 -2 z M 18.5,97.899996 V 97.4 H 18 17.5 v 0.499996 0.5 H 18 18.5 Z M 19.011844,93.570269 18.5,92.236425 18.48469,91.068213 18.46938,89.9 17.609693,91.256763 16.750006,92.613525 16.065989,91.506763 15.381972,90.4 l 1.309017,-0.118421 1.309017,-0.118421 0.75,0.118421 0.75,0.118421 v -1 -1 h -1.980954 -1.980948 l -0.630719,2.512986 -0.63072,2.512986 1.102992,1.329023 1.102991,1.329024 -0.741324,0.789269 L 15,97.662556 17.261844,96.283335 19.523688,94.904113 Z M 15.5,93.9 v -0.5 h 0.5 0.5 v 0.5 0.5 H 16 15.5 Z M 21.484687,90.590983 21.469377,88.9 l -0.969374,1.5 -0.969374,1.5 -0.01531,0.809017 -0.01531,0.809017 1,-0.618034 1,-0.618034 z M 25.22423,86.932111 26,86.079349 24.75,86.798692 23.5,87.518034 v -1.166006 -1.166006 l -1.449072,0.556062 -1.449073,0.556061 0.600703,-1.565406 0.600703,-1.565407 L 19.40163,84.493471 17,85.819609 15.75,85.565968 14.5,85.312326 v 1.160469 1.160468 l 1.889302,-0.494064 1.889302,-0.494063 1.350378,0.834579 1.350379,0.83458 1.73455,-0.264711 1.73455,-0.264711 z M 16.5,81.9 V 81.4 H 16 15.5 v 0.5 0.5 H 16 16.5 Z M 20.833333,99.733336 21.5,99.066666 22.166667,99.733336 22.833333,100.4 H 21.5 20.166667 Z M 24.5,99.899997 V 99.399996 H 25 25.5 V 99.899997 100.4 H 25 24.5 Z M 26.475249,97.834896 25.5,95.269801 v -0.601567 -0.601567 l 0.657991,0.65799 0.65799,0.657991 1.225227,-1.016847 1.225226,-1.016848 0.625212,1.629278 0.625213,1.629277 1.74157,-0.663 L 34,95.281509 32.75,96.540754 31.5,97.799996 v 0.87143 0.87143 l 1.341276,-1.34127 1.341277,-1.341281 0.09783,-3.440634 0.09783,-3.440633 -0.894835,1.447873 -0.894835,1.447873 0.160262,-2.127522 0.160261,-2.127523 1.218153,0.467449 1.218153,0.46745 0.545934,1.422681 L 36.43723,92.4 h 1 1 l -0.609371,-1.587996 -0.609371,-1.587996 2.38054,0.337996 2.380541,0.337996 0.158427,1.769603 0.158428,1.769602 -0.467444,-1.498354 -0.467444,-1.498355 -2.957896,2.186867 -2.957895,2.186867 0.485241,1.264519 0.485242,1.264519 -2.18062,1.527368 -2.18062,1.527364 h -2.302245 -2.302245 z m 3.153918,-1.705729 -1.095834,-1.095834 -0.659167,0.659168 -0.659167,0.659167 1.355949,1.633818 1.35595,1.63382 0.399051,-1.19715 L 30.725,97.225 Z M 36,93.4 l 0.618034,-1 h -0.5 -0.5 L 35,93.4 l -0.618034,1 h 0.5 0.5 z m 2.5,5.999996 -1.5,-0.96937 1.190983,-0.0153 1.190983,-0.0153 0.618034,1 0.618034,1.000004 -0.309017,-0.0153 L 40,100.36943 Z m 3.078947,-0.58333 0.07895,-1.916666 0.525219,1.312496 0.525219,1.3125 -0.604166,0.604174 -0.604167,0.60416 z M 52.163895,98.568216 52.5,97.236425 v -0.977229 -0.97723 l 1,0.618034 1,0.618034 0.118421,-1.809017 L 54.736842,92.9 54.593644,92.07567 54.450447,91.25134 55.475223,91.884687 56.5,92.518034 56.618421,90.709017 56.736842,88.9 l -0.129704,-1 -0.129704,-1 2.506316,3 2.506316,3 0.005,1.55887 0.005,1.558871 1.438195,1.941125 1.438196,1.941131 -0.86541,-3.894211 -0.86541,-3.894214 1.461732,-1.461732 1.461732,-1.461732 -1.083076,-1.305026 -1.083076,-1.305027 1.055622,-0.652409 1.055621,-0.65241 0.599926,1.563382 0.59986,1.563382 -0.765519,1.75 -0.765519,1.75 -0.397416,2.75348 -0.397416,2.75348 2.555946,0.971766 2.555946,0.97177 v 0.398211 0.398213 L 63.462718,100.02346 57.425437,99.899997 56.478031,98.399996 55.530626,96.9 l -0.01531,1.872446 -0.01531,1.872444 -1.402754,-1.164184 -1.402754,-1.16418 -0.433351,0.79174 -0.433351,0.791731 z M 58.5,98.899996 v -0.5 H 58 57.5 v 0.5 0.5 H 58 58.5 Z M 58.48506,96.318449 56,94.373683 57.75,94.99383 59.5,95.613978 V 93.506989 91.4 h -0.877555 -0.877556 l -1.291524,1.556191 -1.291524,1.556192 2.41908,2.313696 L 60,99.139776 l 0.48506,-0.43828 0.485059,-0.43828 z M 58.5,89.9 V 89.4 H 58 57.5 v 0.5 0.5 h 0.5 0.5 z m 12.643935,8.985506 0.485231,-1.26449 1.935417,0.50612 1.935417,0.50613 v 0.75837 0.758364 h -2.420648 -2.420648 z m 6.031408,0.8565 -0.657991,-0.65799 1.000477,-1.2055 1.000476,-1.205499 -2.597456,0.285129 -2.597457,0.285128 0.579628,-0.579628 0.579628,-0.579627 -0.975448,-1.175343 -0.975447,-1.175343 h 1.440135 1.440135 L 74.799639,94.72419 74.187256,95.715047 76.343628,95.151143 78.5,94.587239 78.625,95.49362 78.75,96.4 l 0.125,1.149219 0.125,1.149217 2,0.7805 2,0.780494 -2.583333,0.0703 -2.583334,0.0703 z M 78.5,98.899996 v -0.5 H 78 77.5 v 0.5 0.5 h 0.5 0.5 z m 6.428702,0.29856 -0.749353,-1.29856 0.829174,0.75219 0.829174,0.75218 1.620999,-1.46699 1.620998,-1.46698 0.108233,2.2148 0.108233,2.214804 -0.495326,-1.291734 -0.495326,-1.29174 -1.313726,1.0903 -1.313727,1.090294 z m 5.999869,-0.79856 v -1.971425 l 0.985715,0.985715 0.985714,0.98571 -0.985714,0.98572 -0.985715,0.985714 z M 93.5,99.566666 v -0.83333 h 1.456011 1.456012 L 95.896994,99.566666 95.381966,100.4 H 94.440983 93.5 Z m -50,-1.16667 v -1.333329 l 0.666667,0.666669 0.666666,0.66666 -0.666666,0.66667 L 43.5,99.733336 Z m -37.9999999,-0.5 V 97.4 h 0.5 0.5 v 0.499996 0.5 h -0.5 -0.5 z M 21.578947,96.816667 21.657897,94.9 l 0.525219,1.3125 0.525219,1.3125 -0.604166,0.604166 -0.604167,0.60417 z m 2.254386,0.916669 0.666667,-0.666669 0.666667,0.666669 0.666666,0.66666 H 24.5 23.166667 Z M 45.5,97.899996 V 97.4 h 0.5 0.5 v 0.499996 0.5 H 46 45.5 Z M 47.381579,97.15 47.263158,95.9 l 0.18985,-1 0.189849,-1 -1.271428,1.25 L 45.1,96.4 h -1.383333 -1.383334 l 0.421586,-1.25 0.421586,-1.25 2.43683,-0.05198 2.43683,-0.05198 L 49.275083,93.039 50.5,92.281966 v 1.090402 1.090402 l -1.436858,0.551374 -1.436857,0.551374 0.543846,1.417241 0.543847,1.417237 H 48.106989 47.5 Z M 44.5,94.9 V 94.4 H 44 43.5 v 0.5 0.5 h 0.5 0.5 z m 25.25347,2.28185 0.634176,-1.652635 -1.144569,-0.381523 -1.144569,-0.381523 1.087439,-0.672074 1.087439,-0.672074 1.013021,1.238989 1.01302,1.23899 -1.590066,1.467243 -1.590066,1.467243 z M 81.600271,96.15 82.770909,93.9 83.03371,93.585078 83.29651,93.270156 83.148255,95.834372 83,98.398586 l -1.285184,7.1e-4 -1.285184,7e-4 z M 99.5,97.899996 V 97.4 h 0.5 0.5 v 0.499996 0.5 H 100 99.5 Z m -60.983825,-1.980507 -1.299062,-1.565273 1.805488,0.692831 1.805489,0.69283 L 40.017341,94.319939 39.206591,92.9 40.553296,94.15 41.9,95.4 l -1.042382,1.042382 -1.042381,1.042381 z m 28.468746,0.456112 -0.633114,-1.024399 0.690416,-3.143442 0.690416,-3.143442 0.962672,1.720199 0.962671,1.720199 -1.165081,1.403837 -1.165081,1.403837 0.645107,1.043805 L 68.618034,97.4 h -0.5 -0.5 z M 85.5,96.9 v -0.5 h 0.5 0.5 v 0.5 0.5 H 86 85.5 Z m 11,-0.559017 V 95.281966 L 95.569098,95.857295 94.638197,96.432624 94,95.4 93.361803,94.367376 92.180902,95.075647 91,95.783917 92.372445,94.091958 93.744889,92.4 h 0.806127 0.806127 L 96.928571,93.971429 98.5,95.542857 V 96.471429 97.4 h -1 -1 z M 23.5,95.4 V 94.066667 L 24.166667,94.733333 24.833333,95.4 24.166667,96.066667 23.5,96.733333 Z m 76,0 v -1.333333 l 0.66667,0.666666 L 100.83333,95.4 100.16667,96.066667 99.5,96.733333 Z m -20.342084,-1.449072 -0.556061,-1.449073 1.443329,0.553857 1.443329,0.553858 -0.553274,0.895215 L 80.381966,95.4 H 80.047972 79.713978 Z M 84.748717,93.7483 84.9089,91.621815 87.45445,93.208248 90,94.79468 l 0.363032,0.249026 0.363032,0.249025 -2.113032,-0.15917 L 86.5,94.974391 86.48469,93.937196 86.46938,92.9 85.52896,94.387392 84.588539,95.874784 Z M 30.5,93.9 v -0.5 h 0.5 0.5 v 0.5 0.5 H 31 30.5 Z m -6.489919,-1.516312 0.628116,-1.016312 0.783579,0.484279 0.78358,0.484279 L 28.102678,90.89977 30,89.463607 l 1,-0.02521 1,-0.02522 -3,1.986822 -3,1.986822 -1.309017,0.0066 -1.309017,0.0066 z M 51,92.072883 50,90.82184 49.714913,89.50566 49.429827,88.18948 50.714913,86.54474 52,84.9 50.366783,86.175523 48.733566,87.451047 48.108354,85.821769 47.483141,84.192492 46.03452,84.74838 44.585899,85.304268 45.479106,82.954957 46.372312,80.605645 45.686156,79.865918 45,79.12619 46.5,79.638095 48,80.15 l -0.299734,1.274203 -0.299735,1.274203 0.561568,1.463421 0.561567,1.463421 1.479843,-1.22816 1.479843,-1.228161 L 48.984989,80.199791 46.486626,77.230656 47.05233,76.315328 47.618034,75.4 H 46.059017 44.5 v 1 1 h 1.059017 1.059017 l -0.655018,1.059841 -0.655017,1.059841 -1.237333,-1.692153 -1.237333,-1.692154 V 77.767688 79.4 H 43.666667 44.5 L 44.46959,81.65 44.43918,83.9 43.419901,82.15 42.40062,80.4 h -1.891293 -1.891293 l -0.671885,1.087132 -0.671884,1.087133 1.260046,1.162867 L 39.794357,84.9 39.178563,83.15 38.56277,81.4 h 0.909598 0.909598 l 0.711792,1.151704 0.711792,1.151704 -1.682165,1.230029 -1.682165,1.230029 1.619632,0.621511 1.619632,0.621512 0.92607,-0.572343 0.92607,-0.572343 L 42.824353,85.080902 42.116083,83.9 43.808042,85.272445 45.5,86.644889 V 85.9 85.155111 l 1.542382,1.280063 1.542381,1.280063 -1.018588,1.018588 -1.018588,1.018588 0.96033,1.157127 0.96033,1.157127 H 47.073638 45.679029 L 46.032097,90.233333 46.385165,88.4 44.692582,88.279165 43,88.15833 40.75,88.14206 38.5,88.12579 l -0.01531,-1.112898 -0.01531,-1.112898 -0.969374,1.5 -0.969374,1.5 -0.01531,-1.190983 -0.01531,-1.190983 1.016312,-0.628115 1.016312,-0.628116 -0.575329,-0.930901 -0.575329,-0.930902 h -1 -1 l 0.713526,1.154508 0.713525,1.154509 -1.154509,-0.713525 -1.154508,-0.713526 v 1.225684 1.225683 l -0.651123,-0.651123 -0.651123,-0.651123 -1.423035,1.734457 -1.423034,1.734456 0.633175,-1.25 0.633174,-1.25 h -1.559017 -1.559017 l 0.25,1.125 0.25,1.125 -1.5,0.451131 -1.5,0.451131 1.33541,-0.937934 1.33541,-0.937935 -0.08541,-0.638196 -0.08541,-0.638197 0.125,-0.5 0.125,-0.5 0.125,-1.154671 0.125,-1.15467 1.805807,-0.265037 1.805808,-0.265036 -1.178252,1.419707 -1.178252,1.419707 h 0.969435 0.969435 l 2.244827,-1.946928 2.244826,-1.946928 -0.643755,-1.041618 -0.643755,-1.041617 1.801938,0.675776 1.801938,0.675777 -1.057964,-1.437231 -1.057965,-1.437231 0.171429,-2.25 0.171428,-2.25 h -0.804447 -0.804447 l -0.660168,1.068174 -0.660167,1.068173 -1.366825,-0.524499 -1.366824,-0.5245 -0.591042,0.956326 -0.591042,0.956326 1.309017,0.118483 1.309017,0.118482 1.25,-0.162319 1.25,-0.16232 v 0.913573 0.913573 l -2.25,-0.119736 -2.25,-0.119736 -0.866333,-1.369085 -0.866334,-1.369085 1.318588,-0.814932 1.318587,-0.814932 0.797746,0.493034 0.797746,0.493034 1.106763,-0.684017 1.106762,-0.684017 -1.286388,-0.795032 -1.286389,-0.795032 -0.232589,-1.584731 -0.232589,-1.584731 0.928527,0.573861 0.928527,0.573862 -0.575329,0.930901 -0.575329,0.930902 h 0.942386 0.942385 l 0.566017,-2.164451 0.566017,-2.164451 1.550614,1.286896 1.550615,1.286895 v 0.984545 0.984544 l -1.402234,-0.538088 -1.402235,-0.538088 -0.471811,0.471811 -0.471811,0.471812 2.589136,2.950634 2.589137,2.950633 0.834599,-1.491346 0.834599,-1.491346 h 1.616977 1.616976 l -0.648478,-0.648479 -0.648479,-0.648479 1.958782,-1.698842 1.958782,-1.698843 -2.438304,-2.290668 -2.438304,-2.290668 0.961334,-1.796269 0.961334,-1.796269 v -0.624753 -0.624758 l -1.154508,0.713526 -1.154509,0.713525 0.723607,-1.17082 0.723607,-1.170821 0.930901,0.575329 0.930902,0.575329 V 59.459017 58.4 h 0.968615 0.968615 l -0.63818,1.75 -0.638181,1.75 2.145984,-1.883647 2.145984,-1.883647 L 50.917414,57.266353 50.381978,56.4 h 1.225684 1.225683 l -0.6425,-0.642501 -0.642501,-0.6425 -1.338876,1.111168 -1.338877,1.111169 -3.46285,0.281332 -3.46285,0.281332 -2.804871,2.208761 -2.80487,2.20876 -0.341058,1.79124 L 35.653035,65.9 35.576525,66.84113 35.500015,67.782259 34.031818,65.84113 32.563622,63.9 l -0.0318,1.25 -0.0318,1.25 h -1.059017 -1.059017 l 0.618034,-1 0.618034,-1 h -2.059017 -2.059017 l -0.01531,-1.25 -0.01531,-1.25 -0.948523,1.5 -0.948523,1.5 -1.547068,-1.546619 -1.547068,-1.546618 2.260904,0.05327 2.260898,0.05327 1.25,0.802363 1.25,0.802364 v -1.059017 -1.059017 l 0.75,0.118421 0.75,0.118421 1,-0.133734 1,-0.133734 -1.5,-0.969374 -1.5,-0.969374 2,-0.133734 2,-0.133734 0.82433,0.143198 0.82433,0.143197 -0.675481,-1.09295 -0.67548,-1.09295 -1.347922,0.517246 -1.347922,0.517246 0.536955,-1.699073 0.536955,-1.699072 -2.639166,2.865384 -2.639165,2.865383 -0.51406,-0.51406 -0.51406,-0.51406 2.979013,-3.047488 2.979013,-3.047487 0.579267,1.509546 0.579267,1.509546 0.757063,-0.458421 0.757063,-0.458422 1.055892,1.145039 1.055891,1.14504 0.277442,1 0.277442,1 0.5,0.5 0.5,0.5 -0.333334,-1.5 -0.333333,-1.5 1.25,0.25 1.25,0.25 v -1.021439 -1.021439 l -2.378841,-1.083872 -2.378841,-1.083872 0.536365,-2.051061 0.536364,-2.051061 -1.322007,0.817046 -1.322008,0.817045 -2.863279,0.225243 -2.86328,0.225242 1.113854,-1.342111 1.113853,-1.342111 -0.638028,-1.032351 -0.638028,-1.03235 1.715983,0.658484 1.715983,0.658484 -0.665425,-1.076679 -0.665425,-1.07668 2.124621,0.5556 2.124621,0.555601 -2.240582,1.199124 -2.240583,1.199123 1.617341,0.620632 1.617342,0.620632 v -0.957413 -0.957414 l 2.5,0.206906 2.5,0.206907 v 1.281892 1.281892 h -1 -1 v 0.968615 0.968615 l 1.540894,-0.591296 1.540893,-0.591296 -0.290893,1.313291 -0.290894,1.313291 2,0.291756 2,0.291756 -1.154517,-0.533872 -1.154517,-0.533871 2.385781,-2.574301 2.385782,-2.574301 -0.393529,-0.636742 -0.393528,-0.636742 1.162264,-1.987452 1.162264,-1.987451 1.5,-0.332385 1.5,-0.332385 -2.5,2.802124 -2.5,2.802124 1.744674,-1.337763 1.744673,-1.337763 2.004331,0.524144 2.00433,0.524144 0.495253,-0.801335 0.495252,-0.801335 -1.516903,-0.582091 -1.516904,-0.58209 0.949649,-1.772695 0.949649,-1.772694 0.712654,-2 0.712653,-2 -0.05509,-3.75 -0.05509,-3.75 h 0.842617 0.842617 l -0.38109,3.011199 -0.381089,3.0112 2.570429,-0.466108 2.570429,-0.466108 1.502528,1.502528 1.502527,1.502527 0.601992,-0.601992 0.601992,-0.601992 -1.471043,-0.930314 -1.47104,-0.930314 1.627555,-0.01531 1.627556,-0.01531 1.244889,1.5 1.244889,1.5 H 66.289118 64.83334 v 1.5 1.5 h 0.77663 0.776629 l 1.432421,-2.045068 1.432421,-2.045067 0.54514,1.420612 0.545141,1.420613 -2.409008,1.097617 -2.409008,1.097618 -1.76185,-0.642728 -1.761849,-0.642728 1.75,1.998306 1.75,1.998306 v 1.17126 1.171259 h 1.106989 1.106989 l -0.595535,-1.551938 -0.595534,-1.551938 0.988545,0.610955 0.988546,0.610955 v 1.440983 1.440983 h 1.106989 1.106989 l -0.575604,-1.5 -0.575604,-1.5 h 1.527632 1.527632 l -0.548007,0.886693 -0.548006,0.886693 1.513155,1.255808 1.513156,1.255807 0.618335,-0.618334 0.618334,-0.618335 -1.177587,-1.418906 -1.177587,-1.418906 0.285086,-1.35526 0.285087,-1.35526 -1,0.175908 -1,0.175909 -1.88645,0.733441 -1.88645,0.733441 0.490194,-1.409349 0.490193,-1.40935 1.558852,0.273765 1.558851,0.273765 -0.470079,-2.273765 -0.470079,-2.273765 1.624455,2.816864 1.624455,2.816864 1.266362,-1.050988 1.266363,-1.050987 v 1.428568 1.428568 l -0.958334,-0.194445 -0.958333,-0.194444 -0.504732,1.389196 -0.504732,1.389195 1.129732,-0.698212 1.129732,-0.698213 v 2 2 l -1.087132,0.671885 -1.087133,0.671884 -1.112867,-1.112867 -1.112868,-1.112868 h -0.778561 -0.778561 l 1.152005,2.528378 1.152006,2.528377 0.784915,-1.270018 0.784914,-1.270019 1.241641,1.241641 1.241641,1.241641 h -1.11822 -1.118212 L 73.081787,54.006991 71.5,54.61398 V 53.374286 52.134593 L 69.34699,50.267297 67.193981,48.400002 66.59699,48.415312 66,48.430622 l -1,0.734687 -1,0.734687 v 1.916667 1.916666 l -1.083333,0.361111 -1.083334,0.361112 v -1.527778 -1.527778 h 0.979356 0.979356 l -2.658509,-2.463824 -2.65851,-2.463823 -1.424371,0.546582 -1.42437,0.546583 0.541642,1.411497 0.541643,1.411498 0.826116,-0.510568 0.826117,-0.510569 L 59,50.399996 l 0.638197,1.032624 0.764235,-0.472323 0.764235,-0.472324 v 1.412979 1.412978 L 59.666116,53.889746 58.165565,54.465561 57.082783,53.36135 56,52.257139 l 1.15,0.321428 1.15,0.321429 0.1,-0.75 0.1,-0.75 H 58 57.5 56.136536 54.773072 l 0.13068,2.25 0.13068,2.25 1.982784,-0.291698 L 59,55.3166 l -1.409316,0.949178 -1.409316,0.949178 -1.239534,-0.475654 -1.239533,-0.475653 -0.68724,1.111978 -0.687241,1.111979 1.208535,1.456195 1.208534,1.456195 h 0.984545 0.984544 l -0.543847,-1.417241 -0.543846,-1.417241 1.385666,-0.53173 1.385666,-0.53173 0.623188,1.963492 0.623188,1.963492 L 60.571996,60.8555 61.5,60.281962 v 1.059017 1.059017 h -0.8 -0.8 l -0.999093,-0.999093 -0.999094,-0.999094 0.363611,3.749094 0.363611,3.749093 -1.049205,-1.5 -1.049204,-1.5 -0.133734,1 -0.133734,1 0.131924,0.79051 0.131925,0.79051 -0.99519,1.859529 -0.995189,1.859529 1.430758,0.549033 1.430759,0.549034 -0.556061,-1.449073 -0.556062,-1.449072 h 1.047972 1.047972 l 0.377053,0.75 0.377053,0.75 -1.261594,3.5 -1.261594,3.5 -0.05644,-2.809017 -0.05644,-2.809017 -0.91459,0.565248 -0.91459,0.565247 -0.518109,-1.25623 -0.518108,-1.256231 -0.683933,2.25 -0.683933,2.25 H 51.324356 50.38197 l 0.618034,-1 0.618034,-1 H 50.559017 49.5 v -1.059013 -1.059017 l 1.007671,0.622775 1.007671,0.622775 1.298283,-1.313758 L 54.111908,70.9 54.774569,69.15 55.43723,67.4 h -1.879721 -1.879722 l -2.505417,2.97752 -2.505418,2.977519 1.135884,2.40692 1.135884,2.406919 1.53064,-0.57167 L 52,77.025538 50.708262,78.615523 49.416524,80.205508 50.383262,80.552754 51.35,80.9 l 0.325,1.47619 0.325,1.476191 1.259191,1.354429 1.259191,1.35443 -0.663699,1.073888 -0.6637,1.073889 1.154509,-0.713525 L 55.5,87.281966 V 88.840983 90.4 H 54.54969 53.59938 L 52.506195,88.65 51.413009,86.9 52.03596,90.15 52.658911,93.4 52.329455,93.36196 52,93.32392 Z M 47.5,87.9 V 87.4 H 47 46.5 v 0.5 0.5 h 0.5 0.5 z m -6.990862,-9.98899 -1.235752,-1.488989 -0.903005,0.558088 -0.903005,0.558088 0.575329,0.930901 L 38.618034,79.4 h 1.563428 1.563427 z M 58.5,71.9 V 71.4 H 58 57.5 v 0.5 0.5 h 0.5 0.5 z m -20,-1.940983 V 69.518034 L 37.345492,68.804508 36.190983,68.090983 36.904508,69.245492 37.618034,70.4 H 38.059017 38.5 Z M 51,67.4 l 0.618034,-1 h 1.700436 1.700436 l 1.251249,-2.003567 1.251248,-2.003567 -0.760701,0.111718 L 56,62.616302 53.75,61.89152 51.5,61.166737 v -1.097654 -1.097654 l -1.704505,1.704505 -1.704505,1.704505 1.794805,1.312394 1.794805,1.312393 -1.546495,1.283477 -1.546495,1.283477 -1.198314,-0.740599 -1.198313,-0.740598 0.713525,1.154509 L 47.618034,68.4 H 49 50.381966 Z m 2,-3 -0.618034,-1 H 54 55.618034 L 55,64.4 l -0.618034,1 H 54 53.618034 Z M 48.735169,64.692323 46.470338,64.257011 47.044186,63.328506 47.618034,62.4 H 46.559017 45.5 v 1.5 1.5 L 48.25,65.263818 51,65.127636 Z M 35.89944,61.801458 36.43723,60.4 H 35.168615 33.9 l -1.2,1.2 -1.2,1.2 v 0.70638 0.706381 l 1.930825,-0.504922 1.930825,-0.504923 z M 33.5,61.899998 v -0.5 h 0.5 0.5 v 0.5 0.5 H 34 33.5 Z M 45.935239,55.295215 45.381966,54.4 H 48.440983 51.5 l 0.01531,-1.25 0.01531,-1.25 0.96938,1.5 0.969374,1.5 0.01531,-2.809017 0.01531,-2.809017 1,0.618034 1,0.618034 V 49.602536 48.687038 L 52.488295,48.793519 49.476596,48.9 l 1.494209,1.097454 1.49421,1.097454 -2.650799,1.207785 -2.6508,1.207784 1.216848,-1.466211 1.216847,-1.466211 -0.935252,-0.578017 -0.935251,-0.578017 -1.235752,1.488989 -1.235751,1.48899 0.872444,0.0318 0.872445,0.0318 -1.5,1.221813 -1.5,1.221814 -0.238004,1.210395 -0.238004,1.210395 1.48226,-0.568797 1.482261,-0.568797 -0.553274,-0.895215 z M 64.107127,46.871056 64.323032,45.4 H 63.533961 62.744889 L 61.372445,47.091958 60,48.783917 61.25,48.032941 62.5,47.281966 v 1.225684 1.225683 l 0.695611,-0.695611 0.695611,-0.695611 z M 58.279124,44.562627 58.666667,43.4 h 1.023655 1.023656 l -0.584484,1.523139 -0.584483,1.523139 2.06007,-1.102516 2.06007,-1.102516 -1.821547,-1.331947 -1.821547,-1.331948 -0.915537,0.565833 -0.915537,0.565833 0.729916,-1.181029 0.729916,-1.181028 1.174592,0.145002 L 62,40.636965 63.309017,40.518483 64.618034,40.4 l -0.580045,-0.938533 -0.580045,-0.938533 -2.070707,0.398782 -2.070707,0.398782 0.522496,-1.361603 0.522496,-1.361603 -1.290196,0.189361 -1.290196,0.18936 -1.576279,1.576279 -1.57628,1.576279 1.019985,1.019985 1.019985,1.019985 -2.154418,1.509014 -2.154419,1.509013 1.320148,0.461666 L 55,46.1099 56.445791,45.917577 57.891582,45.725254 Z M 54.5,44.9 v -0.5 h 0.5 0.5 v 0.5 0.5 H 55 54.5 Z m 2,-1 v -0.5 h 0.5 0.5 v 0.5 0.5 H 57 56.5 Z m -1,-2 V 41.4 H 55 54.5 v 0.5 0.5 h 0.5 0.5 z m 33.648909,50.232543 -1.770218,-1.294415 -0.09254,-3.254726 -0.09254,-3.254726 -0.846806,-0.523355 -0.846806,-0.523355 -1.048558,0.648045 -1.048559,0.648044 0.859911,1.160973 0.859911,1.160972 -0.06135,1.486305 -0.06135,1.486305 -2,0.255206 -2,0.255206 2,-0.921225 2,-0.921226 -1,-0.185635 -1,-0.185635 -1.5,-0.150439 -1.5,-0.150439 -1.041036,0.714809 -1.041036,0.714808 -0.148443,-1.970633 -0.148443,-1.970633 1.093987,0.676121 1.093988,0.676122 L 79.095496,85.554508 78.38197,84.4 h 1.027632 1.027632 L 79.86163,82.9 79.286026,81.4 h 1.166006 1.166006 l -0.618034,-1 -0.618034,-1 h 1.059017 1.059017 v 0.8 0.8 l -1.2,1.2 -1.2,1.2 h 1.2 1.2 V 82.65 81.9 h 2.5 2.5 v 1.309017 1.309017 l 1.154508,-0.713526 1.154509,-0.713525 -0.713525,1.154509 L 88.38197,85.4 h 0.990797 0.990798 L 90.096851,82.8984 89.830138,80.3968 89.004745,79.6484 88.179353,78.9 l 0.814834,1.404508 0.814834,1.404509 -1.065442,-0.658479 -1.065442,-0.65848 0.248307,-1.69182 0.248306,-1.69182 1.162627,-0.387542 1.162627,-0.387543 V 77.816667 79.4 h 0.861328 0.861328 l -0.439617,-2.75 -0.439617,-2.75 1.062976,1.5 1.062976,1.5 0.133734,-3 0.133734,-3 -0.118421,-0.75 -0.118421,-0.75 h 1 1 v 1.3 1.3 l 1.165202,1.165202 1.165202,1.165202 1.168132,-1.597514 1.16813,-1.597515 0.0154,1.882313 L 100.1975,74.9 99.098755,75.623799 98.000009,76.347597 96.272245,74.123799 94.544481,71.9 l -0.02224,2.083333 -0.02224,2.083334 -0.695611,0.695611 -0.695611,0.695611 -0.227264,1.548449 -0.227264,1.548448 1.474813,-0.565938 1.474813,-0.565939 -0.610955,0.988545 L 94.381967,81.4 h -1.5 -1.5 l 0.619705,1.002704 0.619706,1.002705 1.939311,-1.037888 1.939312,-1.037889 0.07895,-1.714816 0.07895,-1.714816 0.504386,1.25 0.504386,1.25 h 0.885282 0.885281 l -0.562947,-1.75 -0.562947,-1.75 1.028349,1.452254 1.028349,1.452254 -0.493034,0.797746 L 99.381972,81.4 H 97.940983 96.5 v 0.639757 0.639758 l 1.736725,1.269924 1.736724,1.269924 -1.736724,1.919059 L 96.5,89.057481 v 1.004593 1.004593 h 1.404659 1.404659 L 98.79767,89.733333 98.286022,88.4 H 99.393011 100.5 v 2 2 h -1.418213 -1.418212 l -1.52469,-0.585078 -1.52469,-0.585079 0.892816,-2.348284 0.892816,-2.348283 L 95.699913,86.130533 95,85.72779 l 1.25,0.30472 1.25,0.30472 V 85.475604 84.613978 L 96,84.038374 94.5,83.46277 93.018314,84.031346 91.536628,84.599922 92.405126,86.249961 93.273624,87.9 93.136812,90.317173 93,92.734345 91.959563,93.080651 90.919126,93.426958 Z M 91.861626,90.9 91.286022,89.4 H 90.393011 89.5 v 0.916667 0.916666 l 1.25,0.504386 1.25,0.504386 0.218615,0.07895 0.218615,0.07895 z m -0.02155,-4.056158 -0.469242,-1.222825 -2.019951,0.528229 -2.019952,0.528229 1.123879,0.694596 1.123879,0.694596 h 1.365315 1.365314 z m -8.38238,-0.994815 -0.940344,-1.133046 0.710843,-0.710843 0.710844,-0.710843 -1.71952,0.659841 L 80.5,84.613978 v 1.330862 1.330862 l 1.94902,-0.146815 1.94902,-0.146815 z M 81.5,85.899997 v -0.5 h 0.5 0.5 v 0.5 0.5 H 82 81.5 Z m 8,-8 v -0.5 H 89 88.5 v 0.5 0.5 h 0.5 0.5 z m -16.921053,13.781385 -0.07895,-1.218615 -1.25,0.469007 -1.25,0.469006 -1.155915,-2.500391 -1.155915,-2.500392 h 0.394484 0.394484 l 1.967908,1.684975 1.967907,1.684975 1.600132,0.234849 1.600131,0.23485 -0.431608,-1.169825 -0.431608,-1.169824 -1.19933,0.274777 -1.19933,0.274776 0.595363,-0.963316 0.595362,-0.963316 -1.771033,-1.086358 -1.771032,-1.086358 2,0.274898 2,0.274897 0.679715,1.5 0.679714,1.5 0.07029,-2.718615 0.07028,-2.718615 1.525523,0.585398 1.525524,0.585398 -1.108338,1.335465 -1.108338,1.335466 -0.285886,2.604356 -0.285886,2.604356 1.618701,-0.61585 1.6187,-0.61585 -1.207618,1.216864 -1.207619,1.216864 -1.445135,-1.199356 -1.445136,-1.199357 -0.518299,1.291738 -0.518298,1.291738 z M 71.5,89.899997 v -0.5 H 71 70.5 v 0.5 0.5 H 71 71.5 Z M 81.833333,91.73333 82.5,91.066664 l 0.666667,0.666666 0.666666,0.666667 H 82.5 81.166667 Z M 79.5,90.899997 v -0.5 h 0.5 0.5 v 0.5 0.5 H 80 79.5 Z m -19,-1 v -0.5 h 0.5 0.5 v 0.5 0.5 H 61 60.5 Z m 0,-2.083306 -2.5,-1.38721 1.809017,-0.01474 1.809017,-0.01474 -0.628115,-1.016312 -0.628116,-1.016312 -0.722036,0.446243 -0.722036,0.446243 0.03786,-2.847689 0.03786,-2.847688 0.653273,0.167757 L 60.3,79.900001 v -1 -1 l -0.9,0.25 -0.9,0.25 v -1.622445 -1.622444 l 1.562882,1.297076 1.562882,1.297077 -0.631011,-2.924632 -0.631011,-2.924632 1.609742,2 1.609742,2 1.708387,0.14063 1.708387,0.14063 2,0.684876 2,0.684875 -1.771032,-1.136966 -1.771033,-1.136966 0.510022,-0.825233 0.510022,-0.825232 -1.445185,-1.199397 -1.445184,-1.199397 -1.050868,0.649472 -1.050868,0.649472 -0.6321,-1.647228 -0.632101,-1.647228 -0.845524,1.333846 -0.845523,1.333846 -0.01531,-1.190983 -0.01531,-1.190983 1.007063,-0.622399 1.007063,-0.622399 0.597722,1.557638 0.597722,1.557639 0.911527,-0.563355 0.911527,-0.563355 -0.650735,-1.180901 -0.650735,-1.180902 3.384423,3.5 3.384423,3.5 0.180436,1.65156 0.180436,1.65156 -1.865853,0.487932 -1.865853,0.487931 -0.485767,-1.265886 -0.485766,-1.265887 -2.554135,0.488254 -2.554135,0.488254 1.063836,1.987797 1.063837,1.987797 2.435349,-0.465547 2.435349,-0.465546 0.572134,0.925731 0.572133,0.925732 1.354263,-1.809841 1.354262,-1.809841 -0.566894,2.25 -0.566895,2.25 H 70.442392 69.61804 l -0.628115,-1.016312 -0.628116,-1.016312 -0.887227,0.548337 -0.887228,0.548337 0.650372,1.717975 0.650372,1.717975 -1.774666,-1.759191 -1.774666,-1.759191 -0.91938,0.568208 -0.91938,0.568208 v -1.027632 -1.027632 l -1.660469,0.637181 -1.660468,0.637182 2.274613,0.841434 2.274614,0.841434 -1.090352,1.313793 -1.090351,1.313793 1.176207,1.176207 1.176206,1.176206 -0.45,-0.09805 -0.45,-0.09805 z m 9,-12.916694 v -0.5 H 69 68.5 v 0.5 0.5 h 0.5 0.5 z m -14.165042,9.75 0.905325,-1.75 -0.295106,-1.841631 -0.295107,-1.841632 0.644246,0.644245 0.644245,0.644245 0.0707,2.947387 0.0707,2.947386 H 55.7548 54.429639 l 0.905326,-1.75 z M 26.5,83.899997 v -0.5 h 0.5 0.5 v 0.5 0.5 H 27 26.5 Z M 23.904508,82.245489 23.190983,81.09098 24.345492,81.804505 25.5,82.518031 v -1.059017 -1.059017 h -1.110784 -1.110784 l 2.269893,-1.838048 2.269893,-1.838048 -0.76026,-1.230125 -0.760259,-1.230126 -1.540293,0.591066 -1.540293,0.591065 1.303172,-1.570226 1.303173,-1.570227 0.871758,1.297335 0.871759,1.297334 1.06628,1.870677 1.066281,1.870677 -1.002356,-0.61949 -1.002357,-0.619491 -1.045392,2.998814 -1.045392,2.998813 H 25.111037 24.618034 Z M 0.827517,78.848402 0.735627,75.399997 H 2.117815 3.5000021 V 74.516628 73.63326 l 1.9625,-0.513206 1.962501,-0.513205 -0.405083,-2.103426 -0.405083,-2.103426 h 0.860795 0.860795 l 1.8317879,-0.634533 1.831787,-0.634532 -2,1.615529 -1.9999999,1.61553 1.5,1.00369 1.4999999,1.00369 -1.3724449,0.01531 -1.372444,0.01532 1.324216,1.75 1.3242169,1.75 -1.4017719,-1.25 -1.401772,-1.25 h -0.922445 -0.922444 l 1.244889,1.5 1.244889,1.5 h -0.922444 -0.922445 l -1.033333,-1.033333 -1.033334,-1.033334 v 1.32724 1.327241 l 1.333334,1.245519 1.333333,1.24552 v -1.206093 -1.206093 l 0.660536,0.660536 0.660536,0.660535 -1.836912,2.029765 -1.836912,2.029765 -0.747409,-1.209332 -0.747408,-1.209332 -1.3665111,1.134103 -1.366511,1.134104 z M 3.5000001,77.84098 V 76.399997 H 2.7142861 1.928571 v 1.926581 1.926581 l 0.7857151,-0.485598 0.785714,-0.485598 z m 3,2.118034 v -0.440983 l -1,-0.618034 -1,-0.618034 v 1.059017 1.059017 h 1 1 z M 18.5,81.899997 v -0.5 h 0.5 0.5 v 0.5 0.5 H 19 18.5 Z m 9,0 v -0.5 h 0.5 0.5 v 0.5 0.5 H 28 27.5 Z m 26,0 v -0.5 h 0.5 0.5 v 0.5 0.5 H 54 53.5 Z m 19.5,-0.5 0.618034,-1 h 0.5 0.5 l -0.618034,1 -0.618034,1 h -0.5 -0.5 z m -62.366979,-1.621058 -1.3669799,-1.544983 1.2636839,-1.16698 1.263684,-1.166979 -0.705722,1.25 -0.705721,1.25 1.309017,0.118421 L 13,78.636839 l 0.714012,-0.106425 0.714012,-0.106425 -0.571001,1.488004 -0.571001,1.488004 -0.643011,-0.03804 L 12,81.323917 Z M 33.5,80.399997 v -1.333333 l 0.666667,0.666666 0.666666,0.666667 -0.666666,0.666667 L 33.5,81.73333 Z m 43,-0.531382 V 78.4 L 75.75,78.518421 75,78.636842 73.55887,78.518421 72.117741,78.4 73.852399,77.131587 75.587057,75.863174 75.925002,72.881587 76.262946,69.9 75.24003,68.627108 l -1.022917,-1.272892 1.698914,0.651934 1.698914,0.651935 -0.488274,1.272421 -0.488274,1.272422 1.971887,0.51566 1.971888,0.51566 L 79.940109,70.067124 79.29805,67.9 77.707895,66.65 76.117741,65.4 h 1.132112 1.132113 L 79,66.4 l 0.618034,1 h 0.949457 0.949457 L 80.309374,65.466367 79.1018,63.532733 78.5509,63.584793 78,63.636843 76.75,63.518422 75.5,63.400001 v -0.750519 -0.750519 l 3.488709,-0.08834 3.48871,-0.08834 -1.111154,1.338859 -1.111154,1.338859 1.244889,1.5 1.244889,1.5 h 0.846171 0.84617 l -0.562947,-1.75 -0.562947,-1.75 0.844332,1.108359 L 85,66.11672 l 1.754763,-0.270575 1.754763,-0.270574 -0.510994,0.826805 -0.510993,0.826805 1.25623,0.458903 L 90,68.146988 l -2.5,0.08731 -2.5,0.08731 -1.75,0.205868 -1.75,0.205867 0.464816,0.464817 0.464816,0.464816 -1.00794,1.883353 -1.00794,1.883354 1.703593,0.65373 1.703592,0.65373 -2.332122,0.862708 -2.332123,0.862709 -0.773973,-1.252315 -0.773973,-1.252314 0.5,-0.5 0.5,-0.5 1.021758,1.471039 1.021758,1.47104 -0.409464,-1.5 -0.409465,-1.5 H 78.416667 77 l -0.34497,2.443972 -0.34497,2.443972 1.62436,1.187761 1.62436,1.187761 -1.52939,0.586882 L 76.5,81.337231 Z m 6.734308,0.281385 -0.47967,-1.25 -0.02732,-1 -0.02732,-1 0.9,0.25 0.9,0.25 v -1.139757 -1.139758 l 1.75,-1.375581 1.75,-1.375581 -2.583333,0.581916 -2.583334,0.581916 V 72.010566 70.487977 L 83.666665,71.003006 84.5,71.518034 V 70.459017 69.4 h 1.071429 1.071428 l 1.454761,1.454761 1.454761,1.454761 -1.885964,3.518798 -1.885963,3.518799 -0.693079,-0.693079 -0.693078,-0.693079 0.659841,1.71952 L 85.713978,81.4 h -1 -1 z M 17.5,79.446685 V 78.4 h 1.059017 1.059017 l -0.628115,-1.016312 -0.628116,-1.016312 -0.764235,0.472323 -0.764235,0.472324 v -1.440135 -1.440135 l 1.244306,1.032682 1.244306,1.032682 0.595258,-0.963148 L 20.512461,74.57082 19.32632,74.17544 18.14018,73.78006 18.788705,72.09003 19.43723,70.4 h 0.942901 0.942901 l -0.281658,1.75 -0.281657,1.75 0.765336,1.5 0.765336,1.5 -2.395194,1.796685 L 17.5,80.49337 Z M 20.5,76.9 V 76.4 H 20 19.5 v 0.5 0.5 h 0.5 0.5 z m 0,-4 V 72.4 H 20 19.5 v 0.5 0.5 h 0.5 0.5 z m 8,7 v -0.5 h 0.5 0.5 v 0.5 0.5 H 29 28.5 Z m 3,0 v -0.5 h 0.5 0.5 v 0.5 0.5 H 32 31.5 Z m 33.5,-0.5 0.618034,-1 h 0.5 0.5 L 66,79.4 l -0.618034,1 h -0.5 -0.5 z M 53.103006,78.566667 52.587977,77.733333 H 54 55.412023 L 54.896994,78.566667 54.381966,79.4 H 54 53.618034 Z M 12.5,76.340322 V 75.613978 L 14,75.038374 15.5,74.46277 v 1.301948 1.301949 H 14 12.5 Z M 23.5,76.9 v -0.5 h 0.5 0.5 v 0.5 0.5 H 24 23.5 Z M 72.904508,75.245492 72.190983,74.090983 73.345492,74.804508 74.5,75.518034 V 75.959017 76.4 H 74.059017 73.618034 Z M 0.908858,72.820032 1.140748,71.240064 2.542349,70.373827 3.9439501,69.50759 2.432815,68.927713 0.921679,68.347836 0.774472,66.393608 0.627264,64.43938 l 0.86727,-0.536002 0.867269,-0.536002 0.7236071,1.170821 0.723607,1.17082 L 2.48457,64.890464 1.160123,64.07191 1.830061,65.817743 2.5,67.563575 v 0.540657 0.540657 L 4.0000001,67.4 l 1.5,-1.244889 v 1.551016 1.551016 l -1.5,1.5 -1.5000001,1.5 V 73.328571 74.4 H 1.588484 0.676968 Z M 12.76164,73.4 13.175542,71.9 11.587771,70.575843 10,69.251685 l 1.103772,0.542801 1.103772,0.5428 1.05284,-2.310731 1.05284,-2.310732 L 13.421925,64.307912 12.530626,62.9 l -0.01531,1.037196 -0.01531,1.037195 -2.160023,0.16271 -2.1600219,0.16271 -0.884728,1.300094 -0.884727,1.300095 0.269792,-2 0.269791,-2 -0.848165,-1.353727 -0.848165,-1.353726 2.382801,1.561271 2.3828009,1.561271 0.990322,-0.707544 L 12.000006,62.9 12.350271,60.904273 12.700537,58.908547 10.428377,60.904273 8.1562171,62.9 8.8871291,61.65 9.6180401,60.4 h -1.118034 -1.118034 l 0.684017,-1.106763 0.684017,-1.106762 0.859687,1.356762 0.8596879,1.356763 0.01531,-1.651799 0.01531,-1.651798 2.75,-1.848202 2.75,-1.848201 0.138889,-1.75 0.138889,-1.75 H 15.5039 14.730021 l -1.658942,2.531865 -1.658942,2.531866 -0.956068,-0.590883 -0.9560679,-0.590882 v 1.491629 1.49163 l -2.014521,0.639384 -2.014521,0.639384 0.635198,1.027772 0.635198,1.027771 -2.370677,-1.249472 -2.3706771,-1.249472 -0.69941,-1.077457 -0.69941,-1.077456 1.69941,-1.942405 1.6994101,-1.942405 -1.7500001,0.638181 -1.75,0.63818 v -0.851983 -0.851984 l 2,-0.523012 2.0000001,-0.523012 v 0.874156 0.874157 l 2.25,-0.841206 2.25,-0.841205 -0.29785,-2.037981 -0.29785,-2.03798 1.027371,-0.634951 1.0273719,-0.63495 L 9.2389761,43.35364 8.0189071,41.4 h -0.876084 -0.876085 l 0.560682,2.14405 0.560682,2.144051 -1.16901,-1.16901 -1.16901,-1.16901 1.208745,-1.935508 1.208745,-1.935508 -0.58857,-1.533789 -0.588571,-1.533789 -0.895215,0.553274 -0.895215,0.553273 v -0.523833 -0.523833 l 2.094628,-1.121011 2.094628,-1.121011 -0.701762,2.211056 -0.701762,2.211057 1.188511,-0.73454 1.188511,-0.73454 -0.235064,1.85931 -0.235064,1.859311 0.758472,1.744256 0.7584719,1.744257 0.79043,-0.488513 0.79043,-0.488513 0.553858,1.443329 0.553857,1.443329 -1.699073,-0.618638 -1.699072,-0.618638 2,2.402333 2,2.402332 -1.592009,-1.224091 -1.59201,-1.224091 -0.649314,0.649315 -0.6493149,0.649314 1.1605969,1.398434 1.160596,1.398433 L 10.769274,51.206424 9.7000011,50.9 l -0.35,0.904671 -0.35,0.90467 1.7499999,0.256846 1.75,0.256845 v -1.304527 -1.304527 l 1.579463,-0.606097 1.579463,-0.606097 2.670537,0.617839 2.670537,0.61784 -1.902775,-1.467028 -1.902775,-1.467027 0.679485,-1.09943 0.679485,-1.099431 L 16.437691,45.912 14.32196,46.319452 15.533425,44.859726 16.74489,43.4 h 1.408941 1.40894 l 0.575604,-1.5 0.575604,-1.5 1.643011,0.01531 1.643011,0.01532 -1.5,0.969374 -1.5,0.969374 2,0.172847 2,0.172847 1.25,-0.04642 1.25,-0.04642 0.01531,1.138889 0.01531,1.138889 1.015064,-1.5 1.015064,-1.5 -0.685086,3 -0.685085,3 -0.958444,0.371051 -0.958444,0.371051 1.363152,0.957238 1.363159,0.957232 -2.834597,-0.455789 -2.834597,-0.455789 0.621509,2.1275 0.621509,2.1275 0.385619,3.487262 0.385618,3.487262 -0.827131,-1.487262 -0.827132,-1.487262 -0.523022,-3.344289 -0.523021,-3.34429 -0.572378,-0.572377 -0.572377,-0.572377 v 1.225683 1.225684 l -1.066535,-0.659155 -1.066535,-0.659155 -1.344789,1.83911 -1.34479,1.839109 0.575369,0.930967 0.57537,0.930967 -1.775386,-0.681279 -1.775385,-0.681279 0.55366,1.442815 0.55366,1.442814 -1.911192,-0.368062 -1.911192,-0.368062 1.184508,1.896699 1.184508,1.896699 0.769052,-1.210111 0.769051,-1.210111 0.01531,1.190983 0.01531,1.190983 -0.956326,0.591042 -0.956326,0.591042 0.574593,1.497365 0.574593,1.497365 1.45589,-1.77939 1.455891,-1.77939 -0.633175,1.25 -0.633174,1.25 h 1.118034 1.118034 l -0.515028,0.833333 -0.515029,0.833334 h 3.561724 3.561723 L 22.105712,64.701396 19.5,63.336125 v -0.451884 -0.451884 l 3.518634,1.67792 3.518634,1.677919 -0.355885,1.055902 L 25.825497,67.9 22.912749,67.60537 20,67.310739 l 1.5,1.029318 1.5,1.029317 -1.75,0.01531 -1.75,0.01531 -0.06768,-1.25 -0.06768,-1.25 -1.085134,2.25 -1.085134,2.25 -1.097185,0.01531 -1.097186,0.01531 1.5,1.079019 1.5,1.079019 -1.92005,-0.628201 -1.920051,-0.628202 -0.90608,1.283869 -0.906081,1.28387 z M 16.489431,69.912735 17.723751,68.42547 17.118938,66.849353 16.514126,65.273236 15.4003,65.961618 14.286475,66.65 15.643237,67.509687 17,68.369374 l -1,0.133734 -1,0.133734 -0.583333,-0.06287 -0.583334,-0.06287 v 1.444445 1.444444 h 0.710889 0.710889 l 1.23432,-1.487265 z M 13.5,61.9 V 61.4 H 13 12.5 v 0.5 0.5 h 0.5 0.5 z m -5.6511229,-5.81779 0.651123,0.651123 v -1.559678 -1.559677 l -1.282649,-0.492199 -1.282648,-0.492198 -2.238847,1.812908 -2.2388461,1.812908 1.021495,0.631318 1.0214951,0.631319 V 56.459017 55.4 h 0.968615 0.968615 l -0.55025,1.75 -0.55025,1.75 1.430512,-1.734456 1.430512,-1.734457 z M 21.952587,45.988989 20.012668,44.570486 19.274992,45.735243 18.537315,46.9 l 1.677596,1.253747 1.677596,1.253746 1,-1 1,-1 z M 21.5,47.9 v -0.5 h 0.5 0.5 v 0.5 0.5 H 22 21.5 Z m 6,-2.09106 v -1.34617 l -1.5,0.575604 -1.5,0.575604 v 2.015456 2.015455 L 26,48.4 27.5,47.155111 Z M 24,44.4 l 0.618034,-1 H 23 21.381966 L 22,44.4 l 0.618034,1 H 23 23.381966 Z M 40.04026,73.465143 39.381966,72.4 H 40.940983 42.5 v -0.671259 -0.67126 L 40.760657,68.978741 39.021314,66.9 l 0.897333,0.741324 0.897334,0.741324 1.515425,-1.241324 L 43.84683,65.9 l -0.567257,2.202053 -0.567257,2.202052 0.970569,0.323523 0.970569,0.323523 -1.97745,1.789567 -1.977449,1.789567 z M 63.5,73.9 v -0.5 h 0.5 0.5 v 0.5 0.5 H 64 63.5 Z m 2,0 v -0.5 h 0.5 0.5 v 0.5 0.5 H 66 65.5 Z M 22.506323,71.628561 22.512623,70.9 25.58734,69.15 28.662057,67.4 h 0.977978 0.977977 l -0.618034,1 -0.618034,1 h 1.059017 1.059017 v 1.5 1.5 l -2.25,-0.07029 -2.25,-0.07029 1.646014,-0.679714 1.646014,-0.679715 -1.396014,-1.289427 -1.396014,-1.289426 v 0.878911 0.878912 l -2.5,1.139076 -2.5,1.139076 0.0063,-0.728561 z M 71.289278,71.855944 70.620222,71.186889 71.810111,69.898405 73,68.609921 l 0.75,0.454056 0.75,0.454057 v 1 1 l -0.91459,-0.565248 -0.91459,-0.565247 -0.356243,1.06873 -0.356244,1.068731 z m -20.055945,-1.580032 1.233334,-1.242579 0.559794,0.559795 0.559795,0.559795 -1.793128,0.682784 L 50,71.518491 Z M 90.037985,70.46146 89.457935,69.522921 91.228968,68.40342 93,67.283919 91.75,66.758626 90.5,66.233333 V 65.348051 64.46277 l 1.511341,0.579955 1.51134,0.579956 L 92.9422,64.109972 92.361719,62.597263 90.959804,62.80302 89.557889,63.008778 88.862278,63.704389 88.166667,64.4 H 86.948343 85.73002 L 84.021912,61.793098 82.313804,59.186196 83.466148,58.043098 84.618491,56.9 l -0.746476,2 -0.746477,2 1.676221,-1.363307 1.67622,-1.363307 L 85.929973,57.286693 85.381966,56.4 h 1.681462 1.681461 l -1.364602,1.644246 -1.364603,1.644245 2.158001,-0.684923 2.158001,-0.684923 0.578413,0.935893 0.578414,0.935892 -1.33494,0.512265 -1.334941,0.512265 -1.36157,-0.841497 -1.36157,-0.841497 -0.754072,0.466042 -0.754072,0.466042 0.563315,1.467975 L 85.713978,63.4 h 0.952028 0.952028 l -0.487168,-0.788254 -0.487167,-0.788253 3.106907,0.07452 3.106907,0.07452 0.406654,1.219961 0.406653,1.219961 0.845492,-0.522542 0.845491,-0.522543 0.628116,1.016312 L 96.618034,65.4 h -1.681462 -1.681461 l 1.210695,1.458799 1.210695,1.458798 -2.683272,0.673458 -2.683271,0.673459 1.345021,0.85243 1.345021,0.85243 -1.190983,0.01531 -1.190983,0.01531 z M 98,69.4 l 0.618034,-1 H 99.059017 99.5 v 1 1 H 98.440983 97.381966 Z M 66.807954,67.633141 66.191616,65.9 l -0.419965,-1 -0.419966,-1 1.4344,1.75 1.4344,1.75 h 0.951196 0.951196 L 72.311439,65.361045 74.5,63.32209 v 0.816714 0.816714 l -1.794279,1.53631 -1.794279,1.536309 -1.743575,0.669073 -1.743575,0.669072 z M 59.5,66.9 v -0.5 h 0.5 0.5 v 0.5 0.5 H 60 59.5 Z m 3.417008,-0.861341 0.605673,-1.86134 -1.76134,0.670586 L 60,65.518491 61.25,64.259246 62.5,63 l 0.958359,0.958359 0.958359,0.958359 -1.052691,1.491641 L 62.311336,67.9 Z M 64.5,66.9 v -0.5 h 0.5 0.5 v 0.5 0.5 H 65 64.5 Z M 97.492357,64.65 94.991209,61.9 93.495604,59.975354 92,58.050709 94.673317,59.790119 97.346634,61.52953 96.806686,59.464765 96.266737,57.4 H 94.383369 92.5 v -0.888889 -0.888889 l 1.731217,0.138889 1.731217,0.138889 0.290012,-2.5 0.290011,-2.5 0.145438,-1.297619 0.145438,-1.297619 1.516584,1.516584 1.516584,1.516584 0.150039,2.036588 0.15004,2.036589 L 99.08329,55.16234 98,54.913573 97.75,55.656787 97.5,56.4 v 2.059017 2.059017 l 0.930902,-0.575329 0.930901,-0.575329 0.723607,1.170821 0.72361,1.17082 -1.069101,-0.660739 -1.069099,-0.660739 -0.430077,1.25623 -0.430077,1.256231 1.459677,2.25 1.459677,2.25 h -0.36826 -0.368255 z M 99,52.4 l 0.618034,-1 h -1 -1 L 97,52.4 l -0.618034,1 h 1 1 z M 37.5,65.9 v -0.5 h 0.5 0.5 v 0.5 0.5 H 38 37.5 Z m 31,0 v -0.5 h 0.5 0.5 v 0.5 0.5 H 69 68.5 Z M 41.92053,64.029482 42.529725,62.158964 40.514862,62.685862 38.5,63.212761 v -0.371197 -0.371196 l 1.900039,-1.01687 1.900039,-1.01687 0.507441,1.32237 0.507441,1.32237 -1.001812,1.409316 L 41.311336,65.9 Z M 2.7500001,63.040088 0.5,61.925743 V 60.662872 59.4 h 1.339485 1.3394851 l 1.139076,2.5 1.139076,2.5 -0.228561,-0.122784 -0.228561,-0.122784 z M 2.5,60.9 V 60.4 H 2 1.5 v 0.5 0.5 H 2 2.5 Z m 66,3 v -0.5 h 0.5 0.5 v 0.5 0.5 H 69 68.5 Z m 2.063386,-0.809017 -0.06339,-1.809017 -0.930902,0.575329 -0.930901,0.575329 -0.563355,-0.911527 -0.563355,-0.911527 1.716231,-0.65858 1.716232,-0.65858 -1.471975,-0.930892 -1.471975,-0.930892 1.127555,-0.01531 1.127556,-0.01531 1.137906,1.371093 1.137906,1.371093 -0.952075,2.378907 -0.952075,2.378907 z m -6.999084,-0.63008 -1.435698,-0.908472 1.299005,-1.565205 1.299005,-1.565205 0.801283,0.49522 0.801283,0.49522 0.58541,-1.25623 L 67.5,56.9 67.125,58.4 66.75,59.9 65.625,59.65 64.5,59.4 v 1.426676 1.426676 l 1.75,0.457322 1.75,0.457323 -1.5,0.100689 -1.5,0.100688 z M 99.5,62.9 v -0.5 h 0.5 0.5 v 0.5 0.5 H 100 99.5 Z M 73.016852,60.13269 73.196915,57.9 72.241695,57.275 71.286475,56.65 72.393237,55.965983 73.5,55.281966 V 56.340983 57.4 l -0.08541,0.638197 -0.08541,0.638196 1.132744,0.700075 1.132745,0.700074 -1.37894,1.144419 -1.378941,1.144419 z M 16.5,59.673655 v -2.059677 l 1.523139,-0.584484 1.523139,-0.584483 -1.158593,2.227494 L 17.229091,60.9 16.864545,61.316667 16.5,61.733333 Z M 19.973008,60.356326 19.381966,59.4 H 21.440983 23.5 v 0.393011 0.393011 l -1.467975,0.563315 -1.467975,0.563315 z m 33.985873,-1.022857 -0.659152,-1.066531 0.476597,-0.476597 0.476597,-0.476597 0.592154,1.543128 L 55.43723,60.4 H 55.027632 54.618034 Z M 78.5,59.9 v -0.5 h 0.5 0.5 v 0.5 0.5 H 79 78.5 Z m 2,0 v -0.5 h 0.5 0.5 v 0.5 0.5 H 81 80.5 Z m -31,-2 v -0.5 h 0.5 0.5 v 0.5 0.5 H 50 49.5 Z M 61.3125,57.716886 62.625,57.191667 63.229167,57.795833 63.833333,58.4 61.916667,58.32105 60,58.2421 Z M 76.768504,56.485615 76.925609,54.4 H 77.712804 78.5 v 1.014262 1.014263 l 3.219621,-0.567217 3.219621,-0.567216 -0.584314,0.584314 -0.584314,0.584314 -1.885307,0.382549 L 80,57.227819 78.3057,57.899524 76.611399,58.57123 Z M 20.25,56.007954 18.5,54.679515 v -0.546138 -0.546138 l 2,0.523012 2,0.523012 V 56.016631 57.4 L 22.25,57.3682 22,57.3364 20.25,56.007961 Z m 5.25,0.999035 v -0.393011 l 1.551938,-0.595535 1.551938,-0.595534 -0.610955,0.988545 L 27.381966,57.4 H 26.440983 25.5 Z M 90.535435,56.24362 90.499995,54.587239 88.509952,55.107647 86.51991,55.628055 85.705359,53.426114 84.890808,51.224173 83.572957,52.812087 82.255106,54.4 h -1.068685 -1.068685 l 1.941129,-1.581635 1.94113,-1.581635 -2,0.643403 -2,0.643402 2.316116,-2.162318 2.316115,-2.162319 -0.541949,-0.54195 -0.54195,-0.541949 -1.366175,1.133824 -1.366176,1.133825 -0.65799,-0.657991 -0.657991,-0.65799 -0.118483,1.416666 L 79.26303,50.9 l 0.162319,1.25 0.16232,1.25 h -0.843837 -0.843837 v -2.5 -2.5 h 0.8 0.8 v -1.416667 -1.416666 l 1.25,-0.504386 1.25,-0.504386 -1.309017,-0.07895 -1.309017,-0.07894 0.618034,-1 0.618034,-1 h -1.027632 -1.027632 l 0.579955,-1.511341 0.579956,-1.51134 -1.86134,0.542271 -1.861341,0.54227 2.25,-1.183744 2.25,-1.183745 V 37.247186 36.4 l -1.5,-0.15 -1.5,-0.15 -1.25,-0.1 -1.25,-0.1 0.336288,2.862346 0.336287,2.862345 -1.154461,-0.713496 -1.154461,-0.713496 0.556719,-1.450787 0.556719,-1.450788 -0.841223,0.519905 -0.841224,0.519905 -1.85543,-1.356724 -1.85543,-1.356723 -1.428342,0.548106 -1.428342,0.548106 0.51145,-1.409349 0.51145,-1.40935 0.917408,0.180803 0.917408,0.180802 0.157497,-2.090825 0.157498,-2.090826 1.300094,-0.807931 1.300095,-0.807931 0.314608,0.911777 0.314607,0.911777 1.599438,-0.613762 1.599437,-0.613761 -0.748202,1.210616 -0.748202,1.210616 -1.915843,-0.608065 -1.915843,-0.608065 v 0.984054 0.984054 l 1.25,0.504386 1.25,0.504386 -1.25,0.07895 -1.25,0.07894 v 1.5 1.5 h 1.059017 1.059017 l -0.750975,-1.25 -0.750976,-1.25 1.533968,1.241324 1.533968,1.241324 0.589089,-0.58909 0.58909,-0.589089 -0.538088,-1.402235 -0.538088,-1.402234 h 0.940323 0.940322 l 0.695611,0.695611 0.695611,0.695611 1.467085,0.215322 1.467084,0.215323 0.49706,-0.80426 0.49706,-0.80426 -2.533987,-0.63599 -2.533987,-0.635991 0.665898,-1.077446 0.665898,-1.077445 0.859687,1.356762 0.859687,1.356763 0.01531,-1.75 0.01531,-1.75 -1.25,-0.118421 -1.25,-0.118421 -0.919273,0.174845 -0.919272,0.174845 1.386305,-1.806424 1.386305,-1.806424 0.442297,-0.5 0.442297,-0.5 -0.627945,1.75 -0.627944,1.75 0.718615,-0.0078 0.718615,-0.0078 1.250204,-2.691994 1.250203,-2.691995 -0.922058,-0.922058 -0.922059,-0.922059 0.528844,-1.378145 0.528844,-1.378145 1.643011,0.01531 1.643011,0.01531 -1.395717,0.883762 -1.395718,0.883762 0.614333,1.600925 0.614332,1.600925 h 1.15383 1.153829 l -1.263888,-1.522892 -1.263888,-1.522892 1.542902,0.592067 1.542901,0.592067 0.505283,1.932205 0.505283,1.932205 -0.906741,-0.560397 -0.906741,-0.560397 v 1.118034 1.118034 l -1.099768,-0.679694 -1.099768,-0.679694 1.314332,2.370677 1.314333,2.370677 0.116969,0.5 0.116968,0.5 0.822439,3 0.822439,3 0.978156,0.640677 0.978156,0.640676 -2.203792,0.699456 -2.203791,0.699457 -2.100231,-1.840133 -2.100231,-1.840133 0.915241,1.5 0.915241,1.5 0.108219,2 0.108218,2 0.398435,1.47619 0.398435,1.476191 1.017857,1.113095 1.017857,1.113095 1.482143,0.581767 1.482143,0.581767 -1.75,0.07895 -1.75,0.07895 v 1.106989 1.106989 l 1.435392,-0.550812 1.435393,-0.550812 0.48566,1.193823 0.48566,1.193823 0.07895,-2.15121 0.07895,-2.15121 3.137248,2.930629 3.137248,2.930628 -0.637248,0.637248 -0.637248,0.637248 -0.03543,-0.916666 -0.03544,-0.916667 -1.429129,2.5 -1.429129,2.5 z M 89.5,53.4 v -1 L 87.75,52.41531 86,52.43062 87.5,53.4 l 1.5,0.969374 0.25,0.01531 0.25,0.01532 z m 1.16845,-2.23155 -1.056551,-1.056551 0.619314,2.36826 0.619314,2.36826 L 91.287763,53.53671 91.725,52.225 Z M 84.5,50.9 V 50.4 H 84 83.5 v 0.5 0.5 H 84 84.5 Z M 81.166667,46.733333 80.5,46.066667 V 47.4 48.733333 L 81.166667,48.066667 81.833333,47.4 Z m 4.464454,-10.675342 -1.113769,-1.34201 0.600415,-0.600415 0.600416,-0.600415 L 83.751676,30.707575 81.785169,27.9 l -0.563637,-1.5 -0.563637,-1.5 -0.07895,2.25 -0.07895,2.25 h 0.862487 0.862486 l -0.287836,2.62212 -0.287835,2.62212 1.175349,1.339843 1.175349,1.339843 1.372445,0.03804 1.372444,0.03804 z M 83.5,32.9 v -0.5 h 0.5 0.5 v 0.5 0.5 H 84 83.5 Z m -4,2 V 34.4 H 79 78.5 v 0.5 0.5 h 0.5 0.5 z m -3,-1 V 33.4 H 76 75.5 v 0.5 0.5 h 0.5 0.5 z m 22,23 v -0.5 h 0.5 0.5 v 0.5 0.5 H 99 98.5 Z M 60,55.4 59.381966,54.4 H 60.440983 61.5 v 1 1 h -0.440983 -0.440983 z m 2.5,0.5 v -0.5 h 0.5 0.5 v 0.5 0.5 H 63 62.5 Z m 2,0 v -0.5 h 0.5 0.5 v 0.5 0.5 H 65 64.5 Z m 2,-0.5 V 54.066667 L 67.166667,54.733333 67.833333,55.4 67.166667,56.066667 66.5,56.733333 Z m 3,-0.5 v -0.5 h 0.5 0.5 v 0.5 0.5 H 70 69.5 Z M 26.372445,52.65 25,50.9 l 2,1.467032 2,1.467033 0.416667,0.282967 L 29.833333,54.4 h -1.044222 -1.044222 z m 39.586436,-0.316531 -0.659152,-1.066531 0.533604,-0.533605 0.533605,-0.533604 1.066531,0.659152 L 68.5,51.518034 V 52.459017 53.4 H 67.559017 66.618034 Z M 67.5,51.9 V 51.4 H 67 66.5 v 0.5 0.5 h 0.5 0.5 z m 2,1 v -0.5 h 0.5 0.5 v 0.5 0.5 H 70 69.5 Z M 41.228798,51.588774 42.457595,50.808174 40.54109,49.16721 38.624584,47.526247 38.245813,48.662562 37.867041,49.798877 37.214905,48.099438 36.56277,46.4 h 3.909598 3.909598 l 0.575329,-0.930902 0.575329,-0.930901 -0.930902,-0.575329 -0.930902,-0.575329 -0.448505,1.25623 L 42.77381,45.9 l -0.731966,-0.678394 -0.731965,-0.678394 2.043833,-1.749985 2.043834,-1.749985 -0.418511,-0.677164 -0.41851,-0.677164 2.303071,0.44026 2.303071,0.44026 V 41.984717 43.4 H 48.333333 47.5 l -0.01531,-1.25 -0.01531,-1.25 -0.918704,1.452254 -0.918704,1.452254 0.520107,0.841551 0.520107,0.841551 -1.199397,1.445184 -1.199397,1.445185 -0.817595,-0.505301 -0.817594,-0.505302 -0.643428,1.041089 -0.643429,1.041088 0.82433,-0.143197 L 43,49.163158 43.872445,49.281579 44.744889,49.4 43.5,50.9 42.255111,52.4 41.127555,52.38469 40,52.36938 Z M 43.5,49.9 V 49.4 H 43 42.5 v 0.5 0.5 H 43 43.5 Z M 93.80579,49.9011 92.611581,48.60386 91.30579,48.14803 90,47.692199 91.672089,45.796099 93.344178,43.9 l 0.668158,-2.677642 0.668159,-2.677643 1.46169,-0.560903 1.461691,-0.560903 -0.610955,0.988545 L 96.381966,39.4 H 97.440983 98.5 l 0.125,-1 0.125,-1 0.125,-2.802541 0.125,-2.802541 -1.888358,0.05254 -1.888357,0.05254 -0.284518,-1.827393 -0.284517,-1.827393 1.488266,0.571101 1.488265,0.571101 -0.689618,-2.243708 -0.689618,-2.243708 -0.309242,-0.350136 -0.309241,-0.350135 -1.173294,0.725135 -1.173293,0.725136 1.356762,0.916698 L 96,27.483394 94.5,27.323213 93,27.163033 91.75,27.281515 90.5,27.399998 v 0.968615 0.968615 l 1.5,-0.575604 1.5,-0.575604 -0.01531,1.856989 -0.01532,1.856989 -0.734687,-1.033458 -0.734687,-1.033457 -1,0.04877 -1,0.04877 -1.25,0.793705 -1.25,0.793704 V 29.4 27.281966 l 1.007063,0.622399 1.007063,0.622399 0.597722,-1.557638 0.597722,-1.557639 0.895215,0.553274 0.895215,0.553273 V 24.9 23.281966 l 1,0.618034 1,0.618034 V 23.490402 22.46277 l 1.5,0.575604 1.5,0.575604 v 2 2 l 1.25,-0.479395 1.25,-0.479394 0.06441,7.381134 0.0644,7.381134 L 99.564407,40.658728 98.999996,39.9 l -1.678585,-0.126986 -1.678585,-0.126987 0.143244,1.901603 0.143243,1.901603 1.212228,-0.465175 1.212229,-0.465176 1.323113,1.632517 1.323117,1.632518 -1.250004,-0.750976 -1.25,-0.750975 V 45.340983 46.4 h 1.059017 1.059017 l -0.648045,1.048558 -0.648044,1.048559 -1.410973,-1.171003 -1.410972,-1.171003 -0.125,1.122444 -0.125,1.122445 -0.125,0.916667 -0.125,0.916666 -0.5,0.482474 -0.5,0.482475 -1.19421,-1.297211 z m 2.860167,-3.859185 1.665956,-2.295265 -1.93157,0.142303 -1.93157,0.142303 -1.097254,1.097254 -1.097254,1.097254 0.671884,1.087133 L 93.618034,48.4 94.309017,48.36858 95,48.33716 96.665957,46.041896 Z M 94,45.4 l 0.618034,-1 H 95.059017 95.5 v 1 1 h -1.059017 -1.059017 z m 1.5,-3.5 V 41.4 H 95 94.5 v 0.5 0.5 h 0.5 0.5 z m 2,-11 V 30.4 H 97 96.5 v 0.5 0.5 H 97 97.5 Z M 0.515313,48.65 0.530623,47.9 1.471043,46.412608 2.411464,44.925216 2.242926,47.162608 2.074388,49.4 H 1.287193 0.499997 Z m 2.9846871,0.366631 v -0.383368 l 2,-0.523012 2,-0.523012 V 48.49362 49.4 h -2 -2 z m 81.7181639,-5.177145 -2.761399,-2.560514 0.610645,-0.988044 0.610645,-0.988045 1.39914,1.161183 1.399139,1.161182 0.589152,-1.535305 0.589152,-1.535305 1.218153,-0.46745 1.218153,-0.467449 0.160261,2.127523 0.160262,2.127522 -0.81657,-1.321238 -0.81657,-1.321238 -0.647593,1.6876 -0.647593,1.6876 L 85.741571,42.0013 84,41.395093 85.94113,42.897546 87.882259,44.4 H 88.69113 89.5 v 1 1 H 88.739782 87.979563 Z M 84.5,40.9 V 40.4 H 84 83.5 v 0.5 0.5 H 84 84.5 Z M 3.5789471,44.209017 3.4999971,42.518034 2.511451,41.907079 1.522906,41.296124 2.086957,43.098062 2.651008,44.9 1.459169,43.030915 0.26733,41.16183 l 1.359351,-0.840125 1.3593501,-0.840124 0.785544,2.123527 0.785544,2.123527 -0.449614,1.085683 L 3.6578921,45.9 Z M 30.5,44.9 v -0.5 h 0.5 0.5 v 0.5 0.5 H 31 30.5 Z M 31.710573,43.861963 30.421147,42.4 30.710573,42.31876 31,42.23752 l 2.690196,-0.199162 2.690196,-0.199162 -0.981934,1.183157 -0.981934,1.183158 1.291738,0.518299 L 37,45.242108 l -2,0.04091 -2,0.04091 -1.289427,-1.461963 z M 37.5,44.9 v -0.5 h 0.5 0.5 v 0.5 0.5 H 38 37.5 Z m 2,-1.5 V 42.066667 L 40.166667,42.733333 40.833333,43.4 40.166667,44.066667 39.5,44.733333 Z M 17.25,40.626028 20.5,37.754348 V 36.40286 35.051372 l -2.25,2.100184 -2.25,2.100185 -2.671686,0.662882 -2.671687,0.662882 0.281115,-2.560891 0.281115,-2.560892 -0.859429,0.531156 -0.8594279,0.531156 V 35.459017 34.4 H 11 12.5 l 1.916667,1.916667 1.916666,1.916666 0.54815,-0.548149 0.548149,-0.54815 -1.014989,-1.896525 -1.01499,-1.896525 -0.949826,0.587025 L 13.5,34.518034 V 33.490402 32.46277 l -1.75,0.562947 -1.75,0.562947 1.452254,-1.028349 1.452254,-1.028349 0.728648,0.450329 0.728647,0.450329 0.628116,-1.016312 L 15.618034,30.4 h -1.5 -1.5 L 11.995259,29.392329 11.372484,28.384658 12.945433,26.811709 14.518382,25.23876 13.862487,24.06938 13.206591,22.9 14.475151,24.071855 15.74371,25.24371 17.371855,24.727523 19,24.211336 17.547746,25.239685 16.095492,26.268034 15.297746,25.775 14.5,25.281966 v 1.175648 1.175649 L 16.50138,27.10989 18.50276,26.586518 17.942363,27.493259 17.381966,28.4 h -1.5 -1.5 l 0.780897,1.25 0.780896,1.25 0.175846,1.156036 0.175845,1.156037 1.086175,1.843963 L 18.467799,36.9 18.020557,33.078886 17.573315,29.257772 18.786657,29.664973 20,30.072175 l 0.01161,1.625519 0.01161,1.625518 1.238394,1.238394 L 22.5,35.8 v 1.077759 1.077759 L 20.579106,39.600239 18.658211,41.24496 16.329106,42.371335 14,43.497709 Z M 14,37.4 l 0.618034,-1 H 13.559017 12.5 v 1 1 h 0.440983 0.440983 z m 0,-9 0.618034,-1 h -0.5 -0.5 L 13,28.4 l -0.618034,1 h 0.5 0.5 z m 75.5,14.5 v -0.5 h 0.5 0.5 v 0.5 0.5 H 90 89.5 Z m -77,-1 v -0.5 h 0.5 0.5 v 0.5 0.5 H 13 12.5 Z m 13.5,-1.5 0.618034,-1 h 0.5 0.5 L 27,40.4 l -0.618034,1 h -0.5 -0.5 z m 2.5,0 v -1 h 1.059017 1.059017 L 30,40.4 l -0.618034,1 H 28.940983 28.5 Z M 33.053851,40.48713 32.381966,39.4 33.190983,39.38469 34,39.36938 l -1.391421,-0.881107 -1.39142,-0.881107 -2.176761,0.238948 -2.176762,0.238948 v -2.750095 -2.750096 l 2.020563,0.389125 2.020563,0.389125 0.891951,-1.231558 0.891951,-1.231557 -0.577677,1.788385 -0.577677,1.788386 2.154314,0.796932 2.154315,0.796933 -1.277732,0.789682 -1.277732,0.789682 1.348403,0.833359 1.348404,0.833359 -1.128774,1.128774 -1.128773,1.128773 -0.671884,-1.087133 z M 34.5,39.9 V 39.4 H 34 33.5 v 0.5 0.5 h 0.5 0.5 z m -2.67266,-4.089348 -0.481978,-1.256014 -1.309496,-0.502501 -1.309496,-0.502501 0.459862,1.758515 0.459862,1.758516 h 1.331612 1.331612 z M 42.5,40.9 v -0.5 h 0.5 0.5 v 0.5 0.5 H 43 42.5 Z m -4.5,-1.5 0.618034,-1 H 39.059017 39.5 v 1 1 h -1.059017 -1.059017 z m 10,0 -2,-0.859429 2.166667,-0.07029 2.166666,-0.07028 0.504386,-1.25 0.504386,-1.25 0.07895,2.25 0.07895,2.25 -0.75,-0.07028 -0.75,-0.07029 z m 44.5,0.5 v -0.5 h 0.5 0.5 v 0.5 0.5 H 93 92.5 Z m -92,-1 V 38.4 H 1 1.5 v 0.5 0.5 H 1 0.5 Z m 4.0000001,0 v -0.5 h 0.5 0.5 v 0.5 0.5 h -0.5 -0.5 z M 24.5,38.9 v -0.5 h 0.5 0.5 v 0.5 0.5 H 25 24.5 Z M 43.402361,36.537122 45.44091,33.674243 44.803788,33.037122 44.166667,32.4 h -1.892351 -1.89235 l 0.560013,-0.90612 0.560013,-0.90612 2.083637,0.544884 2.083638,0.544883 0.498125,1.298094 0.498126,1.298094 1.667241,-0.512363 L 50,33.248989 l -1.771032,1.136966 -1.771033,1.136966 0.57297,0.927085 0.572971,0.927085 -1.422896,-0.546016 -1.422895,-0.546016 -0.597658,1.55747 L 43.56277,39.4 H 42.463291 41.363812 Z M 36.694949,35.9 l 0.03705,-3 0.460988,1.769032 0.460988,1.769032 -0.498042,1.230968 -0.498042,1.230968 0.03705,-3 z M 52.5,37.9 v -0.5 h 0.5 0.5 v 0.5 0.5 H 53 52.5 Z M 93.94113,36.955166 95.882259,35.4 h 0.975537 0.975537 L 97.416667,35.764545 97,36.129091 94.5,37.319712 92,38.510332 Z M 1.5,36.4 0,35.430626 l 1.190983,-0.01531 1.190983,-0.01531 0.6180341,1 0.618034,1 -0.309017,-0.01531 -0.309017,-0.01531 z m 22,0.05902 v -0.940983 l 0.833333,-0.515028 0.833334,-0.515029 v 1.456012 1.456011 H 24.333333 L 23.5,37.4 v -0.940983 z m 16.475202,-0.980886 0.739066,-2.32859 -1.002349,0.619486 -1.002349,0.619486 -0.60803,-1.584499 -0.608029,-1.584498 0.524858,-0.849237 0.524857,-0.849237 -1.970633,0.148443 -1.970633,0.148443 0.940344,1.133045 0.940344,1.133046 -0.657991,0.65799 L 35.166667,33.4 H 34.333333 33.5 V 31.6 29.8 L 32.548463,28.85 31.596927,27.9 h 3.502523 3.502523 l 1.699014,-3 L 42,21.9 42.76908,21.329191 43.53816,20.758382 41.01908,19.410211 38.5,18.062041 v -0.890038 -0.890037 l 1,0.618034 1,0.618034 0.01531,-1.309017 0.01531,-1.309017 0.918704,1.452254 0.918704,1.452254 -0.493034,0.797746 L 41.38196,19.4 h 1.167425 1.167425 l -0.638785,-2.75 -0.638785,-2.75 1.015064,1.5 1.015064,1.5 0.01531,-1.083333 0.01532,-1.083334 h 1.5 1.5 v 0.473091 0.473091 l -1.748428,1.278481 -1.748427,1.278482 0.656796,0.656796 0.656796,0.656796 1.341632,0.213737 1.341631,0.213737 2,1.180819 2,1.18082 -1.05,0.03041 -1.05,0.03041 -1.170981,-1.170981 -1.170981,-1.170981 0.112386,2.420981 0.112387,2.420981 -0.141406,1.25 -0.141405,1.25 h -1 -1 v -2 -2 h 1.059017 1.059017 l -0.594747,-0.96232 -0.594746,-0.96232 -2.522188,2.193014 -2.522188,2.193014 1.307917,0.415939 1.307918,0.41594 0.79969,1.353366 0.79969,1.353367 h 1.366977 1.366976 l 0.504386,-1.25 0.504386,-1.25 0.07895,1.127555 0.07895,1.127556 -1.512351,1.25514 -1.512352,1.25514 -2.492065,-2.688983 -2.492065,-2.688983 -1.011895,0.625386 -1.011896,0.625386 0.602402,0.974706 0.602402,0.974707 -1.208535,1.456195 -1.208539,1.456195 0.872444,0.01531 0.872445,0.01531 1.412179,0.893936 1.41218,0.893937 -1.794111,1.794111 -1.794111,1.794111 0.739065,-2.32859 z M 39.5,28.9 V 28.4 H 39 38.5 v 0.5 0.5 h 0.5 0.5 z m 8,-4 V 24.4 H 47 46.5 v 0.5 0.5 h 0.5 0.5 z m -6,-7 V 17.4 H 41 40.5 v 0.5 0.5 h 0.5 0.5 z m 7,18.5 V 35.066667 L 49.166667,35.733333 49.833333,36.4 49.166667,37.066667 48.5,37.733333 Z m 4.194949,-2.5 0.03705,-3 0.460988,1.769032 0.460988,1.769032 -0.498042,1.230968 -0.498042,1.230968 0.03705,-3 z M 90.139163,34.902058 89.5,33.236425 v -0.952423 -0.952423 l 2.75,0.368275 2.75,0.368275 V 33.484064 34.9 H 93.5 92 l -0.610837,0.833846 -0.610836,0.833846 z M 94.5,33.4 v -1 H 94.059017 93.618034 L 93,33.4 l -0.618034,1 H 93.440983 94.5 Z m -3,-0.5 V 32.4 H 91 90.5 v 0.5 0.5 H 91 91.5 Z M 0.959448,33.607219 1.333333,33.233333 1.87362,33.566667 2.413906,33.9 l 1.6246821,-2 1.624682,-2 -0.525458,1.685392 -0.525458,1.685393 1.193823,0.503755 1.193823,0.503756 L 3.7927811,34.1297 0.585562,33.981104 Z M 43.5,33.9 v -0.5 h 0.5 0.5 v 0.5 0.5 H 44 43.5 Z m 7,-0.5 V 32.066667 L 51.166667,32.733333 51.833333,33.4 51.166667,34.066667 50.5,34.733333 Z m 8,0.5 v -0.5 h 0.5 0.5 v 0.5 0.5 H 59 58.5 Z m 3,-0.559017 v -1.059017 l 1,0.618034 1,0.618034 V 33.959017 34.4 h -1 -1 z m 3.078947,0.743276 -0.07895,-0.815742 1.035184,-1.934258 L 66.570365,29.4 h -0.976167 -0.976167 l -0.618034,1 -0.618034,1 h -1.012409 -1.012411 l 1.645317,-1.645317 1.645317,-1.645318 -1.294928,-0.800309 -1.294928,-0.80031 0.669756,-0.669757 0.669757,-0.669756 2.436531,2.832635 2.436531,2.832636 -0.490033,1.277005 -0.490033,1.277004 -0.809805,-0.500487 -0.809805,-0.500487 -0.506462,1.25623 L 64.657895,34.9 Z M 67.5,30.9 V 30.4 H 67 66.5 v 0.5 0.5 h 0.5 0.5 z m 29,3 v -0.5 h 0.5 0.5 v 0.5 0.5 H 97 96.5 Z m -87.9999999,-1 v -0.5 h 0.5 0.5 v 0.5 0.5 h -0.5 -0.5 z m 13.4588809,-0.566531 -0.659152,-1.066531 0.476597,-0.476597 0.476597,-0.476597 0.592154,1.543128 L 23.43723,33.4 H 23.027632 22.618034 Z M 6.2232151,30.4 5.5273091,27.9 5.5136591,26.95 5.5000091,26 l 1.121855,1.121855 1.121855,1.121855 1.211478,-0.464888 1.2114789,-0.464888 V 28.9 30.486066 L 8.8959921,29.998459 7.6253091,29.510852 7.2722191,31.205426 6.9191291,32.9 Z m 18.1901669,1.5 -0.150224,-1 0.118421,-0.75 L 24.5,29.4 H 22 19.5 v -0.571429 -0.571428 l 1.384708,-1.384708 1.384708,-1.384708 1.741159,1.923958 1.741159,1.923959 1.951692,-1.044514 1.951692,-1.044514 L 29.108944,25.823308 28.56277,24.4 H 30.031385 31.5 v 0.889216 0.889216 L 29.533269,28.539216 27.566539,30.9 27.533269,29.95887 27.499999,29.017741 26.031802,30.95887 24.563606,32.9 Z M 25.5,30.9 V 30.4 H 25 24.5 v 0.5 0.5 H 25 25.5 Z M 57.925582,30.733333 58.43723,29.4 H 57.468615 56.5 V 27.70887 26.017741 L 58.027255,27.95887 59.554509,29.9 59.277255,28.003744 59,26.107487 60.5,25.753744 62,25.4 60.696997,26.001001 59.393995,26.602002 61.196997,28.015485 63,29.428968 61.5,29.164484 60,28.9 l 0.111111,1.583333 0.111111,1.583334 H 58.818078 57.413934 Z M 0.842572,28.651987 1,25.403975 l 1.643011,-0.002 1.6430111,-0.002 0.621852,-1.620518 0.621851,-1.620518 -2.072013,0.541844 L 1.385698,23.242626 2.584293,21.798408 3.7828871,20.354191 2.141444,20.984072 0.5,21.613953 v -1.984544 -1.984545 l 1.524166,-1.264945 1.5241661,-1.264945 0.642501,0.6425 0.6425,0.642501 H 3.6666671 2.5 l 0.07895,1.75 0.07895,1.75 0.5043861,-1.25 0.504386,-1.25 h 0.823047 0.823047 l -0.449305,1.75 -0.449305,1.75 1.920481,1.182007 1.920482,1.182007 -0.03509,-1.182007 -0.03509,-1.182007 0.157534,-2.25 0.157534,-2.25 1.7499999,0.01531 1.75,0.01531 -1.302786,0.826328 -1.3027869,0.826328 0.171208,0.908359 0.171207,0.908365 -0.243421,0.75 -0.243421,0.75 -0.125,1.25 -0.125,1.25 -2.25,0.987128 -2.25,0.987129 -0.07895,1.512871 -0.07895,1.512872 -0.55676,-1.407122 -0.55676,-1.407122 -1.2717201,2.907122 -1.27172,2.907122 z M 50,30.4 l 0.618034,-1 h 0.5 0.5 L 51,30.4 l -0.618034,1 h -0.5 -0.5 z M 30.5,29.9 v -0.5 h 0.5 0.5 v 0.5 0.5 H 31 30.5 Z m 22,0 v -0.5 h 0.5 0.5 v 0.5 0.5 H 53 52.5 Z m 2,-1 v -0.5 h 0.5 0.5 v 0.5 0.5 H 55 54.5 Z M 50.464826,26.857618 49.184763,25.315237 50.48956,24.107618 51.794357,22.9 51.225324,24.528145 50.65629,26.15629 51.778145,27.278145 52.9,28.4 H 52.322445 51.744889 Z M 67.5,26.777558 v -1.622444 l 1.342009,1.113768 1.34201,1.113769 0.818316,-0.741324 0.818316,-0.741324 -0.719343,1.25 -0.719342,1.25 H 68.940983 67.5 Z m -41,-0.436575 v -1.059017 l 1,0.618034 1,0.618034 V 26.959017 27.4 h -1 -1 z m 6.849041,0.309017 -0.15096,-0.75 -0.09904,-3.161098 -0.09904,-3.161099 1.599931,1.661099 1.59993,1.661098 -1.34993,0.323324 -1.349931,0.323324 v 0.985693 0.985693 l 0.833333,-0.515028 0.833334,-0.515029 V 25.943989 27.4 H 34.333334 33.500001 Z M 54,26.4 l 0.618034,-1 H 55.059017 55.5 v 1 1 H 54.440983 53.381966 Z M 72.72894,26.21318 73.125,25.025 74.3125,24.629167 75.5,24.233333 v 0.976345 0.976344 l -1.58356,0.607669 -1.58356,0.607669 z M 84.5,26.340983 v -1.059017 l 1,0.618034 1,0.618034 V 26.959017 27.4 h -1 -1 z M 10.33609,25.193805 11.67218,23.48761 11.022708,22.436742 10.373236,21.385874 11.936618,20.785948 13.5,20.186022 v -0.952028 -0.952028 l -1.154508,0.713526 -1.154509,0.713525 0.713525,-1.154509 L 12.618034,17.4 H 14.059017 15.5 v 1.5 1.5 h 1.059017 1.059017 L 17.09105,19.547322 16.564066,18.694644 17.999806,16.797322 19.435546,14.9 18.553302,18.095176 17.671058,21.290353 18.835529,21.728675 20,22.166998 l -4.209558,-0.359897 -4.209559,-0.359898 0.505068,1.316185 0.505067,1.316184 -1.795509,1.410214 L 9.0000001,26.9 Z M 37.5,25.9 v -0.5 h 0.5 0.5 v 0.5 0.5 H 38 37.5 Z M 87.756735,25.4 88.165733,23.9 90.082866,23.667634 92,23.435268 90.5,24.067578 89,24.699888 88.173869,25.799944 87.347738,26.9 Z M 21.5,23.43869 24,21.444472 l 1.25,-0.02224 1.25,-0.02224 -0.01531,-1.75 -0.01531,-1.75 -0.845949,1.334535 -0.84595,1.334534 -0.545124,-2.084534 -0.545118,-2.084535 h -1.216064 -1.216064 l 1.372444,1.75 1.372445,1.75 -1.819523,-1.430143 -1.819523,-1.430144 0.443215,-1.694856 0.443215,-1.694857 h -2.355455 -2.355454 l 0.540779,0.875 0.54078,0.875 H 16.559017 15.5 v -1.559009 -1.559017 l -1.016312,0.628115 -1.016312,0.628116 0.577193,0.933918 0.577194,0.933918 L 12.810881,15.124087 11,14.84214 9.8547851,14.126814 l -1.145215,-0.715327 -0.5734,1.494257 -0.5734,1.494256 -1.281385,-0.07895 -1.281385,-0.07895 1.25,-0.504386 1.25,-0.504386 v -1.523655 -1.523656 l 1.5,0.575604 L 10.5,13.337225 V 12.36861 11.399995 H 9.6069891 8.7139781 L 8.2206031,10.114281 7.7272281,8.8285666 h 1.88701 1.8870099 l 0.566764,1.7857144 0.566763,1.785714 h 1.055057 1.055057 L 13.5,10.899995 12.255111,9.3999946 13.5,7.8999946 14.744889,6.399995 H 13.622445 12.5 V 7.459012 8.5180286 L 11.371584,7.8206296 10.243168,7.1232298 11.923942,6.1826212 13.604716,5.2420125 14.963331,6.3695621 16.321945,7.4971116 16.844989,6.6508076 17.368034,5.8045035 16.684017,4.8177249 16,3.8309463 l -2,0.05112 -2,0.05112 -1.5,-1.0809041 -1.4999999,-1.0809044 -1.5,0.1619942 -1.5,0.1619942 -1.161516,0.1523144 -1.161516,0.1523144 0.183461,1.25 0.183461,1.25 0.978055,0.25 0.978055,0.25 V 4.2453293 3.0906586 L 7.9126631,2.8099394 9.8253251,2.52922 7.1318061,5.21461 4.4382861,7.8999996 3.5809461,6.5218847 2.7236071,5.1437694 1.361803,5.8460422 0,6.5483149 1.587771,5.2241575 3.1755421,3.9 2.7523611,2.6437694 2.32918,1.3875387 1.41459,1.9527864 0.5,2.518034 V 1.6484976 0.7789613 L 5.7500001,0.7823713 11,0.7857813 l 0.55606,1.429623 0.556061,1.429623 1.47239,-1.4723902 1.47239,-1.4723902 1.22155,1.3076728 L 17.5,3.3155934 V 4.3577997 5.400006 h 0.844461 0.844461 L 21.994724,2.9890461 24.800526,0.5780923 26.150263,1.0960348 27.5,1.6139775 v 0.5000001 0.5 L 26,2.0383736 24.5,1.4627695 v 1.536003 1.5360028 L 26.75,3.9766186 29,3.4184619 27.743769,3.9946411 26.487539,4.5708204 27.148278,5.6399187 27.809017,6.709017 26.739919,6.0482779 25.67082,5.3875388 25.216064,6.6437694 24.761307,7.8999996 22.644222,6.65 20.527138,5.4 h -0.425085 -0.425085 l 0.258867,1.75 0.258867,1.7499996 2.485982,-0.04906 2.485983,-0.04906 v 1.2450464 1.245045 L 23.333333,10.310801 21.5,9.3296306 V 9.9872588 10.644887 L 20.01101,9.4091356 18.522021,8.1733846 19.070027,7.2866912 19.618034,6.399998 h -1 -1 L 17.042705,7.3308997 16.467376,8.2618016 17.483688,8.8899166 18.5,9.5180316 v 1.9761674 1.976167 l 2,-1.070368 2,-1.070368 v 1.535184 1.535184 h 1.059017 1.059017 l -0.548255,-0.887095 -0.548255,-0.887095 1.72989,0.137095 1.729891,0.137095 -0.103551,-2.75 -0.10355,-2.75 h 1.421915 1.421915 l -0.618034,-1 -0.618034,-1 L 29.690983,5.2815769 31,5.1631559 31.872681,5.3224707 32.745362,5.4817855 32.166355,3.9729187 31.587348,2.4640499 32.617702,1.8272563 33.648055,1.1904627 36,3.4 38.351945,5.6095372 39.442284,4.9356703 40.532624,4.2618034 39.947214,3.3145898 39.361803,2.3673761 38.680902,2.7787276 38,3.190079 36.710573,1.7950395 35.421147,0.4 h 1.932438 1.932437 l 0.599926,1.5633821 0.599926,1.563382 L 41.5997,2.8383821 42.713525,2.15 41.370394,1.3198993 40.027263,0.4897988 l 3.640814,0.2051006 3.640814,0.2051005 -0.398702,0.6452152 -0.398702,0.6452153 1.605597,0.6161254 1.605597,0.6161254 -0.516,-1.3446739 -0.515999,-1.344674 h 1.237992 1.237993 V 2.0666666 3.4 H 50.333333 49.5 v 1.5 1.5 h 1.059017 1.059017 L 50.904508,5.2454915 50.190983,4.090983 51.334376,4.7976389 52.477769,5.5042947 50.873875,7.9521476 49.26998,10.4 H 48.38499 47.5 l -0.75,0.150766 -0.75,0.150765 -1.168239,1.597662 -1.168239,1.597662 -0.655739,-0.655739 -0.655739,-0.655739 2.260537,-2.5998462 2.260537,-2.5998466 0.836949,1.2571584 0.836949,1.2571572 L 48.227987,7.1878123 47.908958,4.4756247 47.044154,3.6878123 46.179349,2.9 46.855987,4.0809017 47.532624,5.2618034 46.516312,5.8899187 45.5,6.518034 45.381579,4.709017 45.263158,2.9 45.381579,2.15 45.5,1.3999999 h -0.448478 -0.448478 l -2.48327,2.301417 -2.48327,2.301417 0.681748,0.948583 L 41,7.8999996 l 1.325361,0.275121 1.32536,0.27512 -0.616038,-1.9409635 -0.616038,-1.9409632 0.926328,-0.5725022 0.926329,-0.5725023 0.474463,2.4819954 0.474464,2.4819958 -1.360115,1.128794 L 42.5,10.644889 V 9.4634276 8.2819656 l -0.865891,0.53515 -0.86589,0.53515 0.34731,2.7738674 L 41.462839,14.9 40.581099,12.4 39.69936,9.8999998 39.59968,11.15 39.5,12.4 H 37.423531 35.347062 L 35.653922,8.1499996 35.960781,3.9 34.980391,4.4 34,4.9 l -0.05862,2 -0.05862,1.9999996 -0.806257,1.7705564 -0.806257,1.770555 -1.795445,-2.070165 -1.795445,-2.0701664 -0.69603,1.1262 -0.69603,1.1261994 1.856352,1.692952 L 31,13.939083 l 1.5,-0.065 1.5,-0.065 -0.253567,-1.215247 -0.253567,-1.215247 1.938883,1.210853 1.938884,1.210853 -0.536467,0.868022 -0.536467,0.868022 -1.366825,-0.524499 -1.366824,-0.5245 -0.606355,0.981103 -0.606355,0.981102 0.82433,-0.143197 L 34,16.163158 35.25,16.281579 36.5,16.4 v 1.5 1.5 H 35.440983 34.381966 L 35,18.4 l 0.618034,-1 H 34.463309 33.308584 L 30.404292,19.115608 27.5,20.831215 V 21.615608 22.4 l 1.75,0.07028 1.75,0.07029 -2,0.793222 -2,0.793223 -0.628949,-0.976661 -0.628949,-0.97666 -0.378461,1.135383 -0.378462,1.135384 L 21.99259,24.938685 19,25.432908 Z m 9,-5.32411 1.5,-1.221814 0.264386,-1.496383 0.264387,-1.496383 -2.147542,2.5 -2.147542,2.5 0.700543,-2.25 0.700543,-2.25 h -1.126404 -1.126405 l 0.682141,-1.103727 0.68214,-1.103726 -2.715842,1.779488 -2.715841,1.779487 2.342718,1.802003 L 28,19.355528 l 0.5,-0.0096 0.5,-0.0096 z M 26,16.4 25.381966,15.4 H 26.440983 27.5 v 1 1 H 27.059017 26.618034 Z M 11.5,13.9 V 13.4 H 11 10.5 v 0.5 0.5 h 0.5 0.5 z m 5.666667,-3 V 9.3999996 h -1.392351 -1.39235 L 15.095492,8.2454916 15.809017,7.090983 14.651804,7.8061796 13.494591,8.5213766 14.532479,10.460688 15.570368,12.4 h 0.798149 0.79815 z M 39.791942,7.7184056 39.334482,6.5262847 37.917241,7.0701311 36.5,7.6139776 v 0.311224 0.311224 l 0.589894,1.5372402 0.589895,1.5372392 1.284806,-1.200188 1.284807,-1.2001894 z m -6.776184,-0.2822941 0.141682,-1.9231463 -1.893287,1.0132562 -1.893286,1.0132562 1.207067,1.454427 1.207067,1.4544274 0.544537,-0.5445372 0.544538,-0.5445372 z M 23.5,5.4 v -1 H 22.440983 21.381966 L 22,5.4 l 0.618034,1 H 23.059017 23.5 Z m 14,0.5 V 5.4 H 37 36.5 v 0.5 0.5 h 0.5 0.5 z m -22,-3 V 2.4 H 15 14.5 v 0.5 0.5 h 0.5 0.5 z m 19,0 V 2.4 H 34 33.5 v 0.5 0.5 h 0.5 0.5 z m 18,22 v -0.5 h 0.5 0.5 v 0.5 0.5 H 53 52.5 Z m 5,0 v -0.5 h 0.5 0.5 v 0.5 0.5 H 58 57.5 Z m 8,0 v -0.5 h 0.5 0.5 v 0.5 0.5 H 66 65.5 Z m 5,-0.571805 v -1.142173 l -1.551938,0.595535 -1.551938,0.595534 0.558169,-0.903135 L 68.512461,22.57082 67.265159,22.155053 66.017857,21.739286 64.6875,23.069643 63.357143,24.4 H 62.428571 61.5 v -1.059017 -1.059017 l 1.154508,0.713526 1.154509,0.713525 -0.755659,-1.222682 -0.755659,-1.222682 -1.450787,0.556719 -1.450788,0.556719 0.558169,-0.903135 0.558168,-0.903136 -1.25623,-0.576179 L 58,19.418462 l 2.495192,0.635978 2.495192,0.635977 2.754808,-0.07833 2.754808,-0.07832 0.03327,1.183117 0.03327,1.183117 1.877023,-2.25 1.877023,-2.25 h 0.648725 0.648724 l -0.57126,0.924318 -0.57126,0.924318 1.762243,0.459681 L 76,21.167998 73.75,21.284 71.5,21.400001 v 0.968615 0.968615 l 1.5,-0.575604 1.5,-0.575604 v 0.571805 0.571805 l -2,1.070368 -2,1.070368 z M 38.036434,22.483333 38.346977,20.9 l 0.07651,-0.809017 0.07651,-0.809017 0.936368,0.578707 0.936368,0.578707 -0.136618,1.813644 -0.136617,1.813643 H 38.912693 37.725888 Z M 39.5,21.9 V 21.4 H 39 38.5 v 0.5 0.5 h 0.5 0.5 z m 16,2 v -0.5 h 0.5 0.5 v 0.5 0.5 H 56 55.5 Z M 98.9,21.83541 V 19.4 h 0.8 0.8 v 1.940983 1.940983 l -0.8,0.494427 -0.8,0.494427 z m -22.872927,0.520785 0.645107,-1.043805 -1.134648,-1.367167 -1.134649,-1.367168 1.11509,-0.689163 1.115089,-0.689163 0.683469,0.683116 L 78,18.565961 78.04647,20.982981 78.09293,23.4 H 76.737448 75.381965 Z M 20.5,20.9 19.255111,19.4 h 1.015455 1.015456 l 0.575604,1.5 0.575604,1.5 h -0.34617 -0.346171 z m 33,0.5 -1.5,-0.969374 1.190983,-0.01531 1.190983,-0.01531 0.618034,1 0.618034,1 -0.309017,-0.01531 L 55,22.369386 Z m 3,0 V 20.066667 L 57.166667,20.733333 57.833333,21.4 57.166667,22.066667 56.5,22.733333 Z m 30,-0.05902 v -1.059017 l 1,0.618034 1,0.618034 V 21.959014 22.4 h -1 -1 v -1.059017 z m 3.063386,-0.109193 -0.06339,-1.668212 0.604785,-1.576044 0.604785,-1.576044 0.874548,0.540501 0.874549,0.540501 2.048674,-1.096418 2.048675,-1.096418 -0.529388,-0.856568 -0.529388,-0.856567 2.016964,0.527447 2.016964,0.527448 0.584766,0.946175 0.58477,0.946175 -1.350352,-0.262931 -1.350352,-0.26293 -2.25,0.763436 -2.25,0.763437 V 18.667388 19.8 l 1.2,-1.2 1.2,-1.2 h 1.3 1.3 v 1 1 l -1.75,0.07895 -1.75,0.07895 1.25,0.504386 1.25,0.504386 v 1.039111 1.039111 l -1.456195,-1.208534 -1.456195,-1.208535 -1.198314,0.740599 -1.198313,0.740598 0.67082,-1.08541 0.670821,-1.08541 -1.024771,-0.633343 -1.02477,-0.633343 L 90.554924,20.58576 89.626769,22.9 Z M 6.0000001,19.4 l 0.618034,-1 h 0.5 0.5 l -0.618034,1 -0.618034,1 h -0.5 -0.5 z M 49.236075,18.948964 47.477821,17.663297 49.07921,16.334261 50.6806,15.005226 49.030459,13.798614 47.380318,12.592001 48.440159,11.936984 49.5,11.281966 V 12.4 13.518034 l 1.096132,-0.677447 1.096131,-0.677446 -0.38253,1.868429 -0.38253,1.86843 1.376698,1.052613 1.376699,1.052613 -1.343135,1.114703 -1.343135,1.114703 z M 52.5,18.006989 V 17.613978 L 50.948062,17.018443 49.396124,16.422909 50.007079,17.411454 50.618034,18.4 H 51.559017 52.5 Z m 2.404508,0.238503 -0.713525,-1.154509 1.154509,0.713525 L 56.5,18.518034 V 18.959017 19.4 h -0.440983 -0.440983 z m 5.875084,-0.77576 -1.92151,-2.062499 -2.624237,-0.217189 -2.624236,-0.217188 1.106924,-1.333762 1.106925,-1.333763 0.713271,1.154097 L 57.25,14.613525 57.851419,13.64041 58.452837,12.667294 56.476419,10.878659 54.5,9.0900246 V 10.245013 11.4 h -2 -2 V 10.459017 9.5180336 l 1.154508,-0.713525 1.154509,-0.713526 -0.793704,1.284241 -0.793704,1.2842404 1.389195,-0.504732 L 54,9.6499996 53.752204,8.5316106 53.504407,7.4132216 55.752204,7.8323006 58,8.2513796 l 0.5,0.08962 0.5,0.08962 -1.5,0.969374 -1.5,0.9693754 1.633369,0.01531 1.633368,0.01531 0.73211,2.25 0.732109,2.25 0.134522,0.786475 L 61,16.472938 l 1.47104,0.909153 1.471039,0.909152 -0.620488,0.620489 -0.620489,0.620488 z M 60.5,14.9 V 14.4 H 60 59.5 v 0.5 0.5 h 0.5 0.5 z m 5.613087,3.317021 0.52511,-0.849645 0.930901,0.575329 L 68.5,18.518034 v 0.274316 0.274317 h -1.456011 -1.456012 z m 18.783907,0.01631 -0.515028,-0.833333 1.309017,-0.06768 L 87,17.264638 84.761089,16.184453 82.522179,15.104267 84.261089,13.670498 86,12.236729 l -2,0.640881 -2,0.64088 1.226206,-1.235452 1.226207,-1.235452 -1.033357,-1.2451192 -1.033358,-1.2451192 2.140848,0.559844 2.140847,0.559845 L 86.104853,6.1373878 85.542313,2.5977395 87.271157,1.8600249 89,1.1223103 90.70362,0.9316905 92.40724,0.7410708 91.825505,1.6823383 91.243769,2.6236058 92.532408,3.420028 93.821046,4.2164503 95.620634,3.0925889 97.420222,1.9687275 96.306819,1.2806063 95.193415,0.5924851 l 2.669426,0.153757 2.669429,0.1537569 -1.353907,1 -1.353905,1 0.423181,1.2562306 0.423181,1.2562306 0.747924,-0.4622419 0.747926,-0.462242 0.0154,1.7060114 0.0154,1.7060109 -1.044867,0.680225 -1.044864,0.680225 -2.053882,-1.093945 -2.053882,-1.0939442 1.372445,1.6637202 1.372444,1.6637194 H 96.056703 95.368517 L 93.40625,9.3498256 91.443984,8.2996526 92.031009,7.3498257 92.618034,6.399999 H 91.442386 90.266737 L 90.79011,8.4013786 91.313482,10.402759 90.406741,9.8423618 89.5,9.2819646 V 7.4243163 5.5666667 L 90.677051,5.1743163 91.854102,4.781966 91.088023,3.5424247 90.321945,2.3028833 89.068963,3.3427658 87.815981,4.3826481 86.940958,3.6413241 86.065935,2.9 87.352362,4.5860777 88.638788,6.2721554 87.53421,8.3360776 86.429632,10.4 87.214816,10.518421 88,10.636842 88.75,10.518421 89.5,10.4 v 1.059017 1.059017 L 90.75,11.797767 92,11.077499 89.575686,13.73875 87.151372,16.4 h 1.142929 1.142929 l -0.511648,1.333333 -0.511648,1.333334 h -1.500955 -1.500956 z m 3.362875,-4.936679 1.25987,-0.403234 -1.88487,-1.17712 L 85.75,10.539178 v 2.537173 2.537172 L 86.375,14.656705 87,13.699886 Z M 95.842009,7.0753406 96.5,7.7333316 96.51531,6.3166647 96.53062,4.899998 97.460934,6.3710377 98.391248,7.8420776 98.951752,7.2815735 99.512256,6.7210697 97.334231,4.8105339 95.156205,2.899998 l 0.828267,1.4075235 0.828266,1.4075236 -2.085781,-0.5454438 -2.08578,-0.5454438 0.138373,1.8369402 0.138372,1.8369399 1.133045,-0.9403437 1.133046,-0.940344 z M 89,2.399998 l 0.618034,-1 h -0.5 -0.5 l -0.618034,1 -0.618034,1 h 0.5 0.5 z m -30.5,15.5 v -0.5 h 0.5 0.5 v 0.5 0.5 H 59 58.5 Z m 11,0 v -0.5 h 0.5 0.5 v 0.5 0.5 H 70 69.5 Z m 30,0 v -0.5 h 0.5 0.5 v 0.5 0.5 H 100 99.5 Z m -43,-1 v -0.5 h 0.5 0.5 v 0.5 0.5 H 57 56.5 Z m 14.305874,-0.907084 -1.194125,-1.388876 1.943129,-0.50814 1.94313,-0.50814 0.613855,0.993238 0.613855,0.993238 2.031191,-0.531168 2.031192,-0.531169 L 77.89405,15.385185 77,16.258473 74.5,16.820132 72,17.381791 Z M 64.5,15.522443 v -1.122445 h 1 1 v -1.5 -1.5 H 65 63.5 V 10.340983 9.2819656 l -1.048558,0.6480452 -1.048559,0.6480442 1.032682,1.244306 1.032682,1.244306 H 61.984124 60.5 v -1.178346 -1.178346 l 2,-1.8099754 2,-1.8099747 V 6.1859954 5.281966 L 63.666667,5.7969943 62.833333,6.3120227 V 4.8004558 3.2888889 l 2.00103,2.0010301 2.001031,2.0010302 -1.234431,1.4873974 -1.23443,1.4873974 3.582359,-0.4443242 3.58236,-0.4443242 L 70.29999,11.348659 69.068729,13.320222 68.203481,12.110111 67.338233,10.9 l 0.541199,3 0.541198,3 -0.557561,-1.291738 -0.557561,-1.291738 -1.402754,1.164183 L 64.5,16.644889 Z m 15,-0.122445 v -1 h 1 1 v 1 1 h -1 -1 z M 0.5,14.459015 V 13.518032 L 1.488546,12.907077 2.477091,12.296122 1.881557,13.84806 1.286022,15.399998 H 0.893011 0.5 Z m 62,0.440983 v -0.5 h 0.5 0.5 v 0.5 0.5 H 63 62.5 Z m 29.5,-0.5 0.618034,-1 h 0.5 0.5 l -0.618034,1 -0.618034,1 h -0.5 -0.5 z m -88.4999999,-0.5 v -0.5 h 0.5 0.5 v 0.5 0.5 h -0.5 -0.5 z m 2,-0.5 v -1.333333 l 0.666667,0.666666 0.666666,0.666667 -0.666666,0.666667 -0.666667,0.666666 z m 68.5561469,0.222814 -0.722814,-0.722814 -0.916666,-0.125 L 71.5,12.649998 70.75,12.509685 70,12.369372 l 1.5,-0.969374 1.5,-0.969374 0.809017,-0.01531 0.809017,-0.01531 -0.57126,0.924318 -0.57126,0.924318 1.762243,0.349143 L 77,12.946926 75.88948,13.646278 74.77896,14.345631 Z M 77.5,12.899998 v -0.5 h 0.5 0.5 v 0.5 0.5 H 78 77.5 Z m 2,-0.393011 v -0.893011 l 1.641444,-0.629881 1.641443,-0.629881 -1.263888,1.522892 -1.263888,1.522892 H 79.877555 79.5 Z m 18,-0.356989 v -1.416667 h 1.527778 1.527782 L 100.21528,11.754165 99.875,12.774998 98.6875,13.170831 97.5,13.566665 Z M 2.552554,11.432478 1.286475,10.649998 h 2.6067621 2.606763 v 0.268011 0.268011 l -1.340684,0.514469 -1.340684,0.514469 z M 92.5,11.399998 v -1.333333 l 0.666667,0.666666 0.666666,0.666667 -0.666666,0.666667 L 92.5,12.733331 Z m 2,0.5 v -0.5 h 0.5 0.5 v 0.5 0.5 H 95 94.5 Z m -17.305025,-1.852499 -0.672066,-1.7513764 1.158484,0.715983 1.158484,0.715982 -0.577418,-1.504728 -0.577419,-1.5047292 0.892167,-1.4093162 0.892167,-1.4093162 0.01531,1.309017 0.01531,1.309017 1,-0.618034 1,-0.618034 v 1.059017 1.059017 h -1.106989 -1.106989 l 0.595535,1.5519376 0.595534,1.5519384 -0.903135,-0.5581682 -0.903136,-0.5581692 -0.401889,1.2056694 -0.40189,1.205669 z M 79.5,6.899998 v -0.5 H 79 78.5 v 0.5 0.5 h 0.5 0.5 z m -76.6666669,1.8333336 0.666667,-0.666667 0.666667,0.666667 0.666666,0.666666 H 3.5000001 2.166667 Z m 2.666667,0.166666 v -0.5 h 0.5 0.5 v 0.5 0.5 h -0.5 -0.5 z M 59.167246,7.2355488 58.601229,5.0710977 57.050615,6.3579936 55.5,7.6448896 V 5.9634277 4.281966 L 56.581377,4.9502937 57.662754,5.6186213 57.331377,3.350934 57,1.0832466 59.396449,0.897953 61.792898,0.7126596 60.396449,1.8099467 59,2.907234 l -0.290894,1.3690642 -0.290893,1.3690642 1.384769,-0.531386 1.38477,-0.531386 -0.460453,2.4087048 -0.460453,2.4087044 H 60.000054 59.733263 Z M 58.5,1.9 V 1.3999999 H 58 57.5 V 1.9 2.4 h 0.5 0.5 z m 14,6.4999996 V 7.0666667 l 0.666667,0.6666669 0.666666,0.666666 -0.666666,0.666667 L 72.5,9.7333336 Z m -3.1875,-0.683114 1.3125,-0.5252189 0.604167,0.6041669 0.604166,0.604166 -1.916666,-0.07895 L 68,8.2420996 Z M 74.663225,4.5394325 74.438649,0.7333333 H 77.469324 80.5 V 1.4 2.0666667 l -0.631483,0.6314829 -0.631483,0.6314829 -1.868517,-1.0000001 -1.868517,-1 V 2.3648162 3.4 h 1.059017 1.059017 l -0.793704,1.25 -0.793704,1.25 -0.01531,0.6666667 -0.01531,0.6666666 -0.556099,0.5560993 -0.556099,0.556099 z M 83.904508,7.2454915 83.190983,6.090983 84.345492,6.8045085 85.5,7.518034 v 0.4409826 0.440983 H 85.059017 84.618034 Z M 8.5000001,6.9 V 6.4 h 0.5 0.5 v 0.5 0.5 h -0.5 -0.5 z M 53.5,5.9 V 5.4 H 54 54.5 V 5.9 6.4 H 54 53.5 Z m 17,-1.2891114 V 3.1551106 L 68.837379,4.5275553 67.174757,5.9 67.669731,4.4 68.164704,2.9 70.618066,2.802034 73.071429,2.704068 V 4.3853671 6.0666662 H 71.785714 70.5 Z M 81.47104,4.3266239 80,3.3619937 81.94113,1.8809968 83.882259,0.4 h 0.867888 0.867887 L 84.82433,1.65 84.030626,2.9 84.015316,3.5666667 84.000006,4.2333333 83.471046,4.7622937 82.942085,5.291254 Z M 83.5,3.959017 V 3.518034 L 82.345492,2.8045085 81.190983,2.090983 81.904508,3.2454915 82.618034,4.4 H 83.059017 83.5 Z M 65.5,3.9 V 3.4 H 66 66.5 V 3.9 4.4 H 66 65.5 Z M 19.5,2.4 V 1.0666666 L 20.166667,1.7333332 20.833333,2.4 20.166667,3.0666667 19.5,3.7333333 Z M 29.166667,2.7333333 28.5,2.0666667 V 1.0333333 0 L 29.683333,1.1833333 30.866667,2.3666667 30.35,2.8833333 29.833333,3.4 Z M 54,2.4 53.381966,1.4 H 54.440983 55.5 v 1 1 h -0.440983 -0.440983 z m 12.5,-1 V 0.0666667 L 67.166667,0.7333333 67.833333,1.4 67.166667,2.0666666 66.5,2.7333333 Z M 12.5,0.9 V 0.4 H 13 13.5 V 0.9 1.4 H 13 12.5 Z M 16.833333,0.7333333 17.5,0.0666667 18.166667,0.7333333 18.833333,1.4 H 17.5 16.166667 Z M 63.5,0.9 V 0.4 H 64 64.5 V 0.9 1.4 H 64 63.5 Z m 5,0 V 0.4 H 69 69.5 V 0.9 1.4 H 69 68.5 Z M 71.833333,0.7333333 72.5,0.0666667 73.166667,0.7333333 73.833333,1.4 H 72.5 71.166667 Z"
     style="fill:#000000" />
</svg>
